{
    "asset" : {
        "generator" : "Khronos glTF Blender I/O v3.2.43",
        "version" : "2.0"
    },
    "scene" : 0,
    "scenes" : [
        {
            "name" : "Scene",
            "nodes" : [
                0,
                1,
                2,
                6
            ]
        }
    ],
    "nodes" : [
        {
            "name" : "Lattice",
            "rotation" : [
                0.7071067094802856,
                0,
                0,
                0.7071068286895752
            ],
            "scale" : [
                0.17422102391719818,
                0.17422102391719818,
                0.4418770968914032
            ],
            "translation" : [
                0,
                0.8272019028663635,
                0
            ]
        },
        {
            "name" : "Lattice.001",
            "rotation" : [
                0.7071067094802856,
                0,
                0,
                0.7071068286895752
            ],
            "scale" : [
                2.0317699909210205,
                2.0317699909210205,
                1.413751244544983
            ]
        },
        {
            "name" : "Lattice.002",
            "rotation" : [
                0.7071067094802856,
                0,
                0,
                0.7071068286895752
            ],
            "scale" : [
                0.17422102391719818,
                0.17422102391719818,
                0.4418770968914032
            ],
            "translation" : [
                0,
                0.8272019028663635,
                0
            ]
        },
        {
            "mesh" : 0,
            "name" : "Gear.001",
            "scale" : [
                1.0155845880508423,
                1.0155844688415527,
                1.0155844688415527
            ]
        },
        {
            "mesh" : 1,
            "name" : "Gear.002",
            "scale" : [
                0.5989777445793152,
                0.5989778637886047,
                0.5989777445793152
            ],
            "translation" : [
                1.2207396030426025,
                -0.4554153382778168,
                -0.40039727091789246
            ]
        },
        {
            "mesh" : 2,
            "name" : "Gear.003",
            "scale" : [
                0.6083125472068787,
                0.608312726020813,
                0.6083125472068787
            ],
            "translation" : [
                1.2207396030426025,
                -0.4554153382778168,
                -0.40039727091789246
            ]
        },
        {
            "children" : [
                3,
                4,
                5
            ],
            "mesh" : 3,
            "name" : "Gear",
            "rotation" : [
                0.6776702404022217,
                0.0724506825208664,
                0.20189876854419708,
                0.7033852934837341
            ],
            "scale" : [
                5.604287624359131,
                5.6042866706848145,
                5.604288101196289
            ],
            "translation" : [
                -1.1080939769744873,
                5.934356689453125,
                8.73188591003418
            ]
        }
    ],
    "materials" : [
        {
            "doubleSided" : true,
            "name" : "gear4",
            "pbrMetallicRoughness" : {
                "baseColorFactor" : [
                    0.11953844130039215,
                    0.6938719749450684,
                    0.327778160572052,
                    1
                ],
                "metallicFactor" : 0,
                "roughnessFactor" : 0.5
            }
        },
        {
            "doubleSided" : true,
            "name" : "panci",
            "pbrMetallicRoughness" : {
                "baseColorFactor" : [
                    0.0009105806238949299,
                    0.0021246892865747213,
                    0.012983032502233982,
                    1
                ],
                "metallicFactor" : 0,
                "roughnessFactor" : 0.5
            }
        },
        {
            "doubleSided" : true,
            "name" : "gear2",
            "pbrMetallicRoughness" : {
                "baseColorFactor" : [
                    0.0159962996840477,
                    0.048171840608119965,
                    0.09530750662088394,
                    1
                ],
                "metallicFactor" : 0,
                "roughnessFactor" : 0.5
            }
        }
    ],
    "meshes" : [
        {
            "name" : "Gear.002",
            "primitives" : [
                {
                    "attributes" : {
                        "POSITION" : 0,
                        "NORMAL" : 1
                    },
                    "indices" : 2,
                    "material" : 0
                }
            ]
        },
        {
            "name" : "Gear.001",
            "primitives" : [
                {
                    "attributes" : {
                        "POSITION" : 3,
                        "NORMAL" : 4
                    },
                    "indices" : 5,
                    "material" : 1
                }
            ]
        },
        {
            "name" : "Gear.003",
            "primitives" : [
                {
                    "attributes" : {
                        "POSITION" : 6,
                        "NORMAL" : 7
                    },
                    "indices" : 2,
                    "material" : 2
                }
            ]
        },
        {
            "name" : "Gear",
            "primitives" : [
                {
                    "attributes" : {
                        "POSITION" : 8,
                        "NORMAL" : 9
                    },
                    "indices" : 5,
                    "material" : 2
                }
            ]
        }
    ],
    "accessors" : [
        {
            "bufferView" : 0,
            "componentType" : 5126,
            "count" : 360,
            "max" : [
                0.5957310199737549,
                0.23159176111221313,
                0.5957310199737549
            ],
            "min" : [
                -0.5957310199737549,
                -0.23159176111221313,
                -0.5957310199737549
            ],
            "type" : "VEC3"
        },
        {
            "bufferView" : 1,
            "componentType" : 5126,
            "count" : 360,
            "type" : "VEC3"
        },
        {
            "bufferView" : 2,
            "componentType" : 5123,
            "count" : 2016,
            "type" : "SCALAR"
        },
        {
            "bufferView" : 3,
            "componentType" : 5126,
            "count" : 456,
            "max" : [
                1.1375643014907837,
                0.20000000298023224,
                1.1563715934753418
            ],
            "min" : [
                -1.1375643014907837,
                -0.20000000298023224,
                -1.1563715934753418
            ],
            "type" : "VEC3"
        },
        {
            "bufferView" : 4,
            "componentType" : 5126,
            "count" : 456,
            "type" : "VEC3"
        },
        {
            "bufferView" : 5,
            "componentType" : 5123,
            "count" : 2592,
            "type" : "SCALAR"
        },
        {
            "bufferView" : 6,
            "componentType" : 5126,
            "count" : 360,
            "max" : [
                0.5957310199737549,
                0.23159176111221313,
                0.5957310199737549
            ],
            "min" : [
                -0.5957310199737549,
                -0.23159176111221313,
                -0.5957310199737549
            ],
            "type" : "VEC3"
        },
        {
            "bufferView" : 7,
            "componentType" : 5126,
            "count" : 360,
            "type" : "VEC3"
        },
        {
            "bufferView" : 8,
            "componentType" : 5126,
            "count" : 456,
            "max" : [
                1.1375643014907837,
                0.20000000298023224,
                1.1563715934753418
            ],
            "min" : [
                -1.1375643014907837,
                -0.20000000298023224,
                -1.1563715934753418
            ],
            "type" : "VEC3"
        },
        {
            "bufferView" : 9,
            "componentType" : 5126,
            "count" : 456,
            "type" : "VEC3"
        }
    ],
    "bufferViews" : [
        {
            "buffer" : 0,
            "byteLength" : 4320,
            "byteOffset" : 0
        },
        {
            "buffer" : 0,
            "byteLength" : 4320,
            "byteOffset" : 4320
        },
        {
            "buffer" : 0,
            "byteLength" : 4032,
            "byteOffset" : 8640
        },
        {
            "buffer" : 0,
            "byteLength" : 5472,
            "byteOffset" : 12672
        },
        {
            "buffer" : 0,
            "byteLength" : 5472,
            "byteOffset" : 18144
        },
        {
            "buffer" : 0,
            "byteLength" : 5184,
            "byteOffset" : 23616
        },
        {
            "buffer" : 0,
            "byteLength" : 4320,
            "byteOffset" : 28800
        },
        {
            "buffer" : 0,
            "byteLength" : 4320,
            "byteOffset" : 33120
        },
        {
            "buffer" : 0,
            "byteLength" : 5472,
            "byteOffset" : 37440
        },
        {
            "buffer" : 0,
            "byteLength" : 5472,
            "byteOffset" : 42912
        }
    ],
    "buffers" : [
        {
            "byteLength" : 48384,
            "uri" : "data:application/octet-stream;base64,"
        }
    ]
}
