{
    "asset" : {
        "generator" : "Khronos glTF Blender I/O v3.2.43",
        "version" : "2.0"
    },
    "scene" : 0,
    "scenes" : [
        {
            "name" : "Scene",
            "nodes" : [
                0,
                1,
                2,
                5
            ]
        }
    ],
    "nodes" : [
        {
            "name" : "Lattice",
            "rotation" : [
                0.7071066498756409,
                0,
                0,
                0.70710688829422
            ],
            "scale" : [
                0.17422102391719818,
                0.174221009016037,
                0.4418770670890808
            ],
            "translation" : [
                0,
                0.8272019028663635,
                0
            ]
        },
        {
            "name" : "Lattice.001",
            "rotation" : [
                0.7071066498756409,
                0,
                0,
                0.70710688829422
            ],
            "scale" : [
                2.0317699909210205,
                2.0317697525024414,
                1.4137511253356934
            ]
        },
        {
            "name" : "Lattice.002",
            "rotation" : [
                0.7071066498756409,
                0,
                0,
                0.70710688829422
            ],
            "scale" : [
                0.17422102391719818,
                0.174221009016037,
                0.4418770670890808
            ],
            "translation" : [
                0,
                0.8272019028663635,
                0
            ]
        },
        {
            "mesh" : 0,
            "name" : "Cube.086",
            "rotation" : [
                -0.9815367460250854,
                0,
                0.19127412140369415,
                4.217555726881983e-08
            ],
            "scale" : [
                -0.2931883633136749,
                -0.2931884825229645,
                -0.13264833390712738
            ],
            "translation" : [
                0.45568448305130005,
                0.2143799364566803,
                0.8228038549423218
            ]
        },
        {
            "mesh" : 1,
            "name" : "Cylinder.024"
        },
        {
            "children" : [
                3,
                4
            ],
            "mesh" : 2,
            "name" : "Cylinder.042",
            "rotation" : [
                0.12541107833385468,
                -0.08523829281330109,
                -0.08184278756380081,
                0.9850422739982605
            ],
            "scale" : [
                5.839870452880859,
                5.839871406555176,
                5.839871406555176
            ],
            "translation" : [
                -2.2255444526672363,
                6.133291721343994,
                5.852360725402832
            ]
        }
    ],
    "materials" : [
        {
            "doubleSided" : true,
            "name" : "Green",
            "pbrMetallicRoughness" : {
                "baseColorFactor" : [
                    0.391571968793869,
                    0.09084124118089676,
                    0.93011075258255,
                    1
                ],
                "metallicFactor" : 0,
                "roughnessFactor" : 0.5
            }
        },
        {
            "doubleSided" : true,
            "name" : "Dark Blue",
            "pbrMetallicRoughness" : {
                "baseColorFactor" : [
                    0.10125670582056046,
                    0.011045430786907673,
                    0.14089059829711914,
                    1
                ],
                "metallicFactor" : 0,
                "roughnessFactor" : 0.5
            }
        },
        {
            "doubleSided" : true,
            "name" : "Blue",
            "pbrMetallicRoughness" : {
                "baseColorFactor" : [
                    0.15896062552928925,
                    0.033104583621025085,
                    0.39157238602638245,
                    1
                ],
                "metallicFactor" : 0,
                "roughnessFactor" : 0.5
            }
        }
    ],
    "meshes" : [
        {
            "name" : "Cube.081",
            "primitives" : [
                {
                    "attributes" : {
                        "POSITION" : 0,
                        "NORMAL" : 1,
                        "TEXCOORD_0" : 2
                    },
                    "indices" : 3,
                    "material" : 0
                }
            ]
        },
        {
            "name" : "Cylinder.058",
            "primitives" : [
                {
                    "attributes" : {
                        "POSITION" : 4,
                        "NORMAL" : 5,
                        "TEXCOORD_0" : 6
                    },
                    "indices" : 7,
                    "material" : 1
                }
            ]
        },
        {
            "name" : "Cylinder.039",
            "primitives" : [
                {
                    "attributes" : {
                        "POSITION" : 8,
                        "NORMAL" : 9,
                        "TEXCOORD_0" : 10
                    },
                    "indices" : 11,
                    "material" : 2
                }
            ]
        }
    ],
    "accessors" : [
        {
            "bufferView" : 0,
            "componentType" : 5126,
            "count" : 354,
            "max" : [
                2.402209758758545,
                1.0008571147918701,
                0.16043251752853394
            ],
            "min" : [
                -0.44901448488235474,
                -0.9991430640220642,
                -2.768057107925415
            ],
            "type" : "VEC3"
        },
        {
            "bufferView" : 1,
            "componentType" : 5126,
            "count" : 354,
            "type" : "VEC3"
        },
        {
            "bufferView" : 2,
            "componentType" : 5126,
            "count" : 354,
            "type" : "VEC2"
        },
        {
            "bufferView" : 3,
            "componentType" : 5123,
            "count" : 1116,
            "type" : "SCALAR"
        },
        {
            "bufferView" : 4,
            "componentType" : 5126,
            "count" : 418,
            "max" : [
                0.8985587358474731,
                0.6837907433509827,
                0.7480692863464355
            ],
            "min" : [
                -0.5975799560546875,
                0.6837907433509827,
                -0.7480692863464355
            ],
            "type" : "VEC3"
        },
        {
            "bufferView" : 5,
            "componentType" : 5126,
            "count" : 418,
            "type" : "VEC3"
        },
        {
            "bufferView" : 6,
            "componentType" : 5126,
            "count" : 418,
            "type" : "VEC2"
        },
        {
            "bufferView" : 7,
            "componentType" : 5123,
            "count" : 474,
            "type" : "SCALAR"
        },
        {
            "bufferView" : 8,
            "componentType" : 5126,
            "count" : 868,
            "max" : [
                1.767519474029541,
                0.9694304466247559,
                0.8824354410171509
            ],
            "min" : [
                -0.7319461703300476,
                -0.7445501685142517,
                -0.8824353814125061
            ],
            "type" : "VEC3"
        },
        {
            "bufferView" : 9,
            "componentType" : 5126,
            "count" : 868,
            "type" : "VEC3"
        },
        {
            "bufferView" : 10,
            "componentType" : 5126,
            "count" : 868,
            "type" : "VEC2"
        },
        {
            "bufferView" : 11,
            "componentType" : 5123,
            "count" : 3312,
            "type" : "SCALAR"
        }
    ],
    "bufferViews" : [
        {
            "buffer" : 0,
            "byteLength" : 4248,
            "byteOffset" : 0
        },
        {
            "buffer" : 0,
            "byteLength" : 4248,
            "byteOffset" : 4248
        },
        {
            "buffer" : 0,
            "byteLength" : 2832,
            "byteOffset" : 8496
        },
        {
            "buffer" : 0,
            "byteLength" : 2232,
            "byteOffset" : 11328
        },
        {
            "buffer" : 0,
            "byteLength" : 5016,
            "byteOffset" : 13560
        },
        {
            "buffer" : 0,
            "byteLength" : 5016,
            "byteOffset" : 18576
        },
        {
            "buffer" : 0,
            "byteLength" : 3344,
            "byteOffset" : 23592
        },
        {
            "buffer" : 0,
            "byteLength" : 948,
            "byteOffset" : 26936
        },
        {
            "buffer" : 0,
            "byteLength" : 10416,
            "byteOffset" : 27884
        },
        {
            "buffer" : 0,
            "byteLength" : 10416,
            "byteOffset" : 38300
        },
        {
            "buffer" : 0,
            "byteLength" : 6944,
            "byteOffset" : 48716
        },
        {
            "buffer" : 0,
            "byteLength" : 6624,
            "byteOffset" : 55660
        }
    ],
    "buffers" : [
        {
            "byteLength" : 62284,
            "uri" : "data:application/octet-stream;base64,"
        }
    ]
}
