{
    "asset" : {
        "generator" : "Khronos glTF Blender I/O v3.2.43",
        "version" : "2.0"
    },
    "scene" : 0,
    "scenes" : [
        {
            "name" : "Scene",
            "nodes" : [
                0,
                1,
                2,
                5
            ]
        }
    ],
    "nodes" : [
        {
            "name" : "Lattice",
            "rotation" : [
                0.7071067094802856,
                0,
                0,
                0.7071068286895752
            ],
            "scale" : [
                0.17422102391719818,
                0.17422102391719818,
                0.4418770968914032
            ],
            "translation" : [
                0,
                0.8272019028663635,
                0
            ]
        },
        {
            "name" : "Lattice.001",
            "rotation" : [
                0.7071067094802856,
                0,
                0,
                0.7071068286895752
            ],
            "scale" : [
                2.0317699909210205,
                2.0317699909210205,
                1.413751244544983
            ]
        },
        {
            "name" : "Lattice.002",
            "rotation" : [
                0.7071067094802856,
                0,
                0,
                0.7071068286895752
            ],
            "scale" : [
                0.17422102391719818,
                0.17422102391719818,
                0.4418770968914032
            ],
            "translation" : [
                0,
                0.8272019028663635,
                0
            ]
        },
        {
            "mesh" : 0,
            "name" : "BezierCurve.006",
            "rotation" : [
                0.6906090974807739,
                -0.15185192227363586,
                0.15185196697711945,
                0.6906092762947083
            ],
            "scale" : [
                0.22645121812820435,
                0.22645118832588196,
                0.4141777455806732
            ],
            "translation" : [
                0.39316487312316895,
                1.6985480785369873,
                0
            ]
        },
        {
            "mesh" : 1,
            "name" : "Cube.077",
            "scale" : [
                0.13500669598579407,
                0.24692633748054504,
                0.13500668108463287
            ],
            "translation" : [
                1.6784937381744385,
                -0.5299274325370789,
                0.6181630492210388
            ]
        },
        {
            "children" : [
                3,
                4
            ],
            "mesh" : 2,
            "name" : "Cylinder.033",
            "rotation" : [
                0.0849662721157074,
                -0.3851577341556549,
                -0.05948248878121376,
                0.917003870010376
            ],
            "scale" : [
                4.202773571014404,
                2.297861337661743,
                4.202773094177246
            ],
            "translation" : [
                -0.6675224900245667,
                4.827340126037598,
                -0.4828699827194214
            ]
        }
    ],
    "materials" : [
        {
            "doubleSided" : true,
            "name" : "White",
            "pbrMetallicRoughness" : {
                "baseColorFactor" : [
                    0.5209956169128418,
                    0.5271152257919312,
                    0.5271152257919312,
                    1
                ],
                "metallicFactor" : 0,
                "roughnessFactor" : 0.5
            }
        },
        {
            "doubleSided" : true,
            "name" : "Yellow",
            "pbrMetallicRoughness" : {
                "baseColorFactor" : [
                    0.391571968793869,
                    0.09084124118089676,
                    0.93011075258255,
                    1
                ],
                "metallicFactor" : 0,
                "roughnessFactor" : 0.5
            }
        },
        {
            "doubleSided" : true,
            "name" : "Dark Blue",
            "pbrMetallicRoughness" : {
                "baseColorFactor" : [
                    0.15896062552928925,
                    0.033104583621025085,
                    0.39157238602638245,
                    1
                ],
                "metallicFactor" : 0,
                "roughnessFactor" : 0.5
            }
        }
    ],
    "meshes" : [
        {
            "name" : "BezierCurve.001",
            "primitives" : [
                {
                    "attributes" : {
                        "POSITION" : 0,
                        "NORMAL" : 1,
                        "TEXCOORD_0" : 2
                    },
                    "indices" : 3,
                    "material" : 0
                }
            ]
        },
        {
            "name" : "Cube.077",
            "primitives" : [
                {
                    "attributes" : {
                        "POSITION" : 4,
                        "NORMAL" : 5,
                        "TEXCOORD_0" : 6
                    },
                    "indices" : 7,
                    "material" : 1
                }
            ]
        },
        {
            "name" : "Cylinder.024",
            "primitives" : [
                {
                    "attributes" : {
                        "POSITION" : 8,
                        "NORMAL" : 9,
                        "TEXCOORD_0" : 10
                    },
                    "indices" : 11,
                    "material" : 2
                }
            ]
        }
    ],
    "accessors" : [
        {
            "bufferView" : 0,
            "componentType" : 5126,
            "count" : 637,
            "max" : [
                6.581679344177246,
                0.1819424033164978,
                4.869088649749756
            ],
            "min" : [
                -1.7297170162200928,
                -0.08336268365383148,
                0.5702378153800964
            ],
            "type" : "VEC3"
        },
        {
            "bufferView" : 1,
            "componentType" : 5126,
            "count" : 637,
            "type" : "VEC3"
        },
        {
            "bufferView" : 2,
            "componentType" : 5126,
            "count" : 637,
            "type" : "VEC2"
        },
        {
            "bufferView" : 3,
            "componentType" : 5123,
            "count" : 3456,
            "type" : "SCALAR"
        },
        {
            "bufferView" : 4,
            "componentType" : 5126,
            "count" : 592,
            "max" : [
                0.6340556144714355,
                1.6659691333770752,
                0.7167243957519531
            ],
            "min" : [
                -0.8118244409561157,
                -1.6866319179534912,
                -0.7167240381240845
            ],
            "type" : "VEC3"
        },
        {
            "bufferView" : 5,
            "componentType" : 5126,
            "count" : 592,
            "type" : "VEC3"
        },
        {
            "bufferView" : 6,
            "componentType" : 5126,
            "count" : 592,
            "type" : "VEC2"
        },
        {
            "bufferView" : 7,
            "componentType" : 5123,
            "count" : 3018,
            "type" : "SCALAR"
        },
        {
            "bufferView" : 8,
            "componentType" : 5126,
            "count" : 378,
            "max" : [
                1.6728837490081787,
                1.2460095882415771,
                1.6728830337524414
            ],
            "min" : [
                -1.6728830337524414,
                -1,
                -1.6728837490081787
            ],
            "type" : "VEC3"
        },
        {
            "bufferView" : 9,
            "componentType" : 5126,
            "count" : 378,
            "type" : "VEC3"
        },
        {
            "bufferView" : 10,
            "componentType" : 5126,
            "count" : 378,
            "type" : "VEC2"
        },
        {
            "bufferView" : 11,
            "componentType" : 5123,
            "count" : 1704,
            "type" : "SCALAR"
        }
    ],
    "bufferViews" : [
        {
            "buffer" : 0,
            "byteLength" : 7644,
            "byteOffset" : 0
        },
        {
            "buffer" : 0,
            "byteLength" : 7644,
            "byteOffset" : 7644
        },
        {
            "buffer" : 0,
            "byteLength" : 5096,
            "byteOffset" : 15288
        },
        {
            "buffer" : 0,
            "byteLength" : 6912,
            "byteOffset" : 20384
        },
        {
            "buffer" : 0,
            "byteLength" : 7104,
            "byteOffset" : 27296
        },
        {
            "buffer" : 0,
            "byteLength" : 7104,
            "byteOffset" : 34400
        },
        {
            "buffer" : 0,
            "byteLength" : 4736,
            "byteOffset" : 41504
        },
        {
            "buffer" : 0,
            "byteLength" : 6036,
            "byteOffset" : 46240
        },
        {
            "buffer" : 0,
            "byteLength" : 4536,
            "byteOffset" : 52276
        },
        {
            "buffer" : 0,
            "byteLength" : 4536,
            "byteOffset" : 56812
        },
        {
            "buffer" : 0,
            "byteLength" : 3024,
            "byteOffset" : 61348
        },
        {
            "buffer" : 0,
            "byteLength" : 3408,
            "byteOffset" : 64372
        }
    ],
    "buffers" : [
        {
            "byteLength" : 67780,
            "uri" : "data:application/octet-stream;base64,"
        }
    ]
}
