{
    "asset" : {
        "generator" : "Khronos glTF Blender I/O v3.2.43",
        "version" : "2.0"
    },
    "scene" : 0,
    "scenes" : [
        {
            "name" : "Scene",
            "nodes" : [
                0,
                1,
                2,
                6
            ]
        }
    ],
    "nodes" : [
        {
            "name" : "Lattice",
            "rotation" : [
                0.7071066498756409,
                0,
                0,
                0.70710688829422
            ],
            "scale" : [
                0.17422102391719818,
                0.1742209494113922,
                0.44187694787979126
            ],
            "translation" : [
                0,
                0.8272019028663635,
                0
            ]
        },
        {
            "name" : "Lattice.001",
            "rotation" : [
                0.7071066498756409,
                0,
                0,
                0.70710688829422
            ],
            "scale" : [
                2.0317699909210205,
                2.031768798828125,
                1.4137506484985352
            ]
        },
        {
            "name" : "Lattice.002",
            "rotation" : [
                0.7071066498756409,
                0,
                0,
                0.70710688829422
            ],
            "scale" : [
                0.17422102391719818,
                0.1742209494113922,
                0.44187694787979126
            ],
            "translation" : [
                0,
                0.8272019028663635,
                0
            ]
        },
        {
            "mesh" : 0,
            "name" : "Cube.007",
            "scale" : [
                0.34370505809783936,
                0.06464433670043945,
                4.727748870849609
            ],
            "translation" : [
                0,
                -1.5349409580230713,
                -2.2551987171173096
            ]
        },
        {
            "mesh" : 1,
            "name" : "Cube.044",
            "rotation" : [
                -1,
                0,
                0,
                2.414167852293758e-07
            ],
            "scale" : [
                -0.2637699842453003,
                -0.4315745234489441,
                -4.727748870849609
            ],
            "translation" : [
                0.39437052607536316,
                -0.00036895275115966797,
                1.405792474746704
            ]
        },
        {
            "mesh" : 2,
            "name" : "Cube.053",
            "rotation" : [
                -1,
                0,
                0,
                2.414167852293758e-07
            ],
            "scale" : [
                -0.2637699842453003,
                -0.4315745234489441,
                -4.727748870849609
            ],
            "translation" : [
                0.0002522319555282593,
                0.00012671947479248047,
                1.1352752447128296
            ]
        },
        {
            "children" : [
                3,
                4,
                5
            ],
            "mesh" : 3,
            "name" : "Cube.005",
            "rotation" : [
                0,
                0.3698219656944275,
                0,
                0.9291026592254639
            ],
            "scale" : [
                8.928804397583008,
                5.45711612701416,
                0.49815472960472107
            ],
            "translation" : [
                -0.46516314148902893,
                7.397590160369873,
                1.2819932699203491
            ]
        }
    ],
    "materials" : [
        {
            "doubleSided" : true,
            "name" : "Green.003",
            "pbrMetallicRoughness" : {
                "baseColorFactor" : [
                    0.15896062552928925,
                    0.033104583621025085,
                    0.39157238602638245,
                    1
                ],
                "metallicFactor" : 0,
                "roughnessFactor" : 0.5
            }
        },
        {
            "doubleSided" : true,
            "name" : "Blue.003",
            "pbrMetallicRoughness" : {
                "baseColorFactor" : [
                    0.15896062552928925,
                    0.033104583621025085,
                    0.39157238602638245,
                    1
                ],
                "metallicFactor" : 0,
                "roughnessFactor" : 0.5
            }
        },
        {
            "alphaCutoff" : 0,
            "alphaMode" : "MASK",
            "doubleSided" : true,
            "name" : "Dark blue.003",
            "pbrMetallicRoughness" : {
                "baseColorFactor" : [
                    0.043275393545627594,
                    0.001825119135901332,
                    0.10251399874687195,
                    1
                ],
                "metallicFactor" : 0,
                "roughnessFactor" : 0.8532110452651978
            }
        }
    ],
    "meshes" : [
        {
            "name" : "Cube.010",
            "primitives" : [
                {
                    "attributes" : {
                        "POSITION" : 0,
                        "NORMAL" : 1,
                        "TEXCOORD_0" : 2
                    },
                    "indices" : 3,
                    "material" : 0
                }
            ]
        },
        {
            "name" : "Cube.011",
            "primitives" : [
                {
                    "attributes" : {
                        "POSITION" : 4,
                        "NORMAL" : 5,
                        "TEXCOORD_0" : 6
                    },
                    "indices" : 7,
                    "material" : 0
                }
            ]
        },
        {
            "name" : "Cube.012",
            "primitives" : [
                {
                    "attributes" : {
                        "POSITION" : 8,
                        "NORMAL" : 9,
                        "TEXCOORD_0" : 10
                    },
                    "indices" : 11,
                    "material" : 0
                }
            ]
        },
        {
            "name" : "Cube.006",
            "primitives" : [
                {
                    "attributes" : {
                        "POSITION" : 12,
                        "NORMAL" : 13,
                        "TEXCOORD_0" : 14
                    },
                    "indices" : 15,
                    "material" : 1
                },
                {
                    "attributes" : {
                        "POSITION" : 16,
                        "NORMAL" : 17,
                        "TEXCOORD_0" : 18
                    },
                    "indices" : 19,
                    "material" : 2
                }
            ]
        }
    ],
    "accessors" : [
        {
            "bufferView" : 0,
            "componentType" : 5126,
            "count" : 157,
            "max" : [
                1.342521071434021,
                20.166601181030273,
                1
            ],
            "min" : [
                -1.342521071434021,
                -1,
                -1.1042852401733398
            ],
            "type" : "VEC3"
        },
        {
            "bufferView" : 1,
            "componentType" : 5126,
            "count" : 157,
            "type" : "VEC3"
        },
        {
            "bufferView" : 2,
            "componentType" : 5126,
            "count" : 157,
            "type" : "VEC2"
        },
        {
            "bufferView" : 3,
            "componentType" : 5123,
            "count" : 672,
            "type" : "SCALAR"
        },
        {
            "bufferView" : 4,
            "componentType" : 5126,
            "count" : 257,
            "max" : [
                3.4807004928588867,
                1.000856876373291,
                0.1604326069355011
            ],
            "min" : [
                -0.44901448488235474,
                -0.9991438984870911,
                -0.16043224930763245
            ],
            "type" : "VEC3"
        },
        {
            "bufferView" : 5,
            "componentType" : 5126,
            "count" : 257,
            "type" : "VEC3"
        },
        {
            "bufferView" : 6,
            "componentType" : 5126,
            "count" : 257,
            "type" : "VEC2"
        },
        {
            "bufferView" : 7,
            "componentType" : 5123,
            "count" : 840,
            "type" : "SCALAR"
        },
        {
            "bufferView" : 8,
            "componentType" : 5126,
            "count" : 96,
            "max" : [
                0.4056687355041504,
                0.9997072815895081,
                0.20903530716896057
            ],
            "min" : [
                -0.40552258491516113,
                -1.0002926588058472,
                -0.20903530716896057
            ],
            "type" : "VEC3"
        },
        {
            "bufferView" : 9,
            "componentType" : 5126,
            "count" : 96,
            "type" : "VEC3"
        },
        {
            "bufferView" : 10,
            "componentType" : 5126,
            "count" : 96,
            "type" : "VEC2"
        },
        {
            "bufferView" : 11,
            "componentType" : 5123,
            "count" : 276,
            "type" : "SCALAR"
        },
        {
            "bufferView" : 12,
            "componentType" : 5126,
            "count" : 192,
            "max" : [
                1,
                1,
                1
            ],
            "min" : [
                -1,
                -1,
                -1
            ],
            "type" : "VEC3"
        },
        {
            "bufferView" : 13,
            "componentType" : 5126,
            "count" : 192,
            "type" : "VEC3"
        },
        {
            "bufferView" : 14,
            "componentType" : 5126,
            "count" : 192,
            "type" : "VEC2"
        },
        {
            "bufferView" : 15,
            "componentType" : 5123,
            "count" : 774,
            "type" : "SCALAR"
        },
        {
            "bufferView" : 16,
            "componentType" : 5126,
            "count" : 20,
            "max" : [
                0.89555823802948,
                0.8278154730796814,
                0.6735999584197998
            ],
            "min" : [
                -0.89555823802948,
                -0.8278156518936157,
                0.6735999584197998
            ],
            "type" : "VEC3"
        },
        {
            "bufferView" : 17,
            "componentType" : 5126,
            "count" : 20,
            "type" : "VEC3"
        },
        {
            "bufferView" : 18,
            "componentType" : 5126,
            "count" : 20,
            "type" : "VEC2"
        },
        {
            "bufferView" : 19,
            "componentType" : 5123,
            "count" : 54,
            "type" : "SCALAR"
        }
    ],
    "bufferViews" : [
        {
            "buffer" : 0,
            "byteLength" : 1884,
            "byteOffset" : 0
        },
        {
            "buffer" : 0,
            "byteLength" : 1884,
            "byteOffset" : 1884
        },
        {
            "buffer" : 0,
            "byteLength" : 1256,
            "byteOffset" : 3768
        },
        {
            "buffer" : 0,
            "byteLength" : 1344,
            "byteOffset" : 5024
        },
        {
            "buffer" : 0,
            "byteLength" : 3084,
            "byteOffset" : 6368
        },
        {
            "buffer" : 0,
            "byteLength" : 3084,
            "byteOffset" : 9452
        },
        {
            "buffer" : 0,
            "byteLength" : 2056,
            "byteOffset" : 12536
        },
        {
            "buffer" : 0,
            "byteLength" : 1680,
            "byteOffset" : 14592
        },
        {
            "buffer" : 0,
            "byteLength" : 1152,
            "byteOffset" : 16272
        },
        {
            "buffer" : 0,
            "byteLength" : 1152,
            "byteOffset" : 17424
        },
        {
            "buffer" : 0,
            "byteLength" : 768,
            "byteOffset" : 18576
        },
        {
            "buffer" : 0,
            "byteLength" : 552,
            "byteOffset" : 19344
        },
        {
            "buffer" : 0,
            "byteLength" : 2304,
            "byteOffset" : 19896
        },
        {
            "buffer" : 0,
            "byteLength" : 2304,
            "byteOffset" : 22200
        },
        {
            "buffer" : 0,
            "byteLength" : 1536,
            "byteOffset" : 24504
        },
        {
            "buffer" : 0,
            "byteLength" : 1548,
            "byteOffset" : 26040
        },
        {
            "buffer" : 0,
            "byteLength" : 240,
            "byteOffset" : 27588
        },
        {
            "buffer" : 0,
            "byteLength" : 240,
            "byteOffset" : 27828
        },
        {
            "buffer" : 0,
            "byteLength" : 160,
            "byteOffset" : 28068
        },
        {
            "buffer" : 0,
            "byteLength" : 108,
            "byteOffset" : 28228
        }
    ],
    "buffers" : [
        {
            "byteLength" : 28336,
            "uri" : "data:application/octet-stream;base64,"
        }
    ]
}
