{
    "asset" : {
        "generator" : "Khronos glTF Blender I/O v3.2.43",
        "version" : "2.0"
    },
    "scene" : 0,
    "scenes" : [
        {
            "name" : "Scene",
            "nodes" : [
                0,
                1,
                2,
                5
            ]
        }
    ],
    "nodes" : [
        {
            "name" : "Lattice",
            "rotation" : [
                0.7071066498756409,
                0,
                0,
                0.70710688829422
            ],
            "scale" : [
                0.17422102391719818,
                0.174221009016037,
                0.4418770670890808
            ],
            "translation" : [
                0,
                0.8272019028663635,
                0
            ]
        },
        {
            "name" : "Lattice.001",
            "rotation" : [
                0.7071066498756409,
                0,
                0,
                0.70710688829422
            ],
            "scale" : [
                2.0317699909210205,
                2.0317697525024414,
                1.4137511253356934
            ]
        },
        {
            "name" : "Lattice.002",
            "rotation" : [
                0.7071066498756409,
                0,
                0,
                0.70710688829422
            ],
            "scale" : [
                0.17422102391719818,
                0.174221009016037,
                0.4418770670890808
            ],
            "translation" : [
                0,
                0.8272019028663635,
                0
            ]
        },
        {
            "mesh" : 0,
            "name" : "Cylinder.019",
            "rotation" : [
                0.22319801151752472,
                -0.4963529109954834,
                0.7073135375976562,
                0.45113635063171387
            ],
            "scale" : [
                0.0761740505695343,
                0.6779229640960693,
                0.08918670564889908
            ],
            "translation" : [
                -0.9323170781135559,
                -0.1473408341407776,
                0.1325317919254303
            ]
        },
        {
            "mesh" : 1,
            "name" : "Plane.042",
            "scale" : [
                -0.4368263781070709,
                -0.43682634830474854,
                -0.02849978394806385
            ],
            "translation" : [
                0.38633567094802856,
                -0.025374621152877808,
                0.7140343189239502
            ]
        },
        {
            "children" : [
                3,
                4
            ],
            "mesh" : 2,
            "name" : "Plane.036",
            "rotation" : [
                0.3921761214733124,
                -0.43529072403907776,
                0.8019390106201172,
                0.11667745560407639
            ],
            "scale" : [
                5.671250820159912,
                5.67125129699707,
                7.822851657867432
            ],
            "translation" : [
                -0.8589110374450684,
                6.295267581939697,
                1.2609888315200806
            ]
        }
    ],
    "materials" : [
        {
            "doubleSided" : true,
            "name" : "Blue",
            "pbrMetallicRoughness" : {
                "baseColorFactor" : [
                    0.15896062552928925,
                    0.033104583621025085,
                    0.39157238602638245,
                    1
                ],
                "metallicFactor" : 0.46875,
                "roughnessFactor" : 0.5
            }
        },
        {
            "doubleSided" : true,
            "name" : "Black",
            "pbrMetallicRoughness" : {
                "baseColorFactor" : [
                    0.391571968793869,
                    0.09084124118089676,
                    0.93011075258255,
                    1
                ],
                "metallicFactor" : 0.1517857164144516,
                "roughnessFactor" : 0.5
            }
        },
        {
            "doubleSided" : true,
            "name" : "Metal",
            "pbrMetallicRoughness" : {
                "baseColorFactor" : [
                    0.391571968793869,
                    0.09084124118089676,
                    0.93011075258255,
                    1
                ],
                "metallicFactor" : 0.7276785969734192,
                "roughnessFactor" : 0.5
            }
        },
        {
            "doubleSided" : true,
            "name" : "White",
            "pbrMetallicRoughness" : {
                "baseColorFactor" : [
                    0.15896062552928925,
                    0.033104583621025085,
                    0.39157238602638245,
                    1
                ],
                "metallicFactor" : 0,
                "roughnessFactor" : 0.4000000059604645
            }
        }
    ],
    "meshes" : [
        {
            "name" : "Cylinder.021",
            "primitives" : [
                {
                    "attributes" : {
                        "POSITION" : 0,
                        "NORMAL" : 1,
                        "TEXCOORD_0" : 2
                    },
                    "indices" : 3,
                    "material" : 0
                },
                {
                    "attributes" : {
                        "POSITION" : 4,
                        "NORMAL" : 5,
                        "TEXCOORD_0" : 6
                    },
                    "indices" : 7,
                    "material" : 1
                },
                {
                    "attributes" : {
                        "POSITION" : 8,
                        "NORMAL" : 9,
                        "TEXCOORD_0" : 10
                    },
                    "indices" : 11,
                    "material" : 2
                }
            ]
        },
        {
            "name" : "Plane.021",
            "primitives" : [
                {
                    "attributes" : {
                        "POSITION" : 12,
                        "NORMAL" : 13,
                        "TEXCOORD_0" : 14
                    },
                    "indices" : 15,
                    "material" : 1
                }
            ]
        },
        {
            "name" : "Plane.007",
            "primitives" : [
                {
                    "attributes" : {
                        "POSITION" : 16,
                        "NORMAL" : 17,
                        "TEXCOORD_0" : 18
                    },
                    "indices" : 19,
                    "material" : 3
                }
            ]
        }
    ],
    "accessors" : [
        {
            "bufferView" : 0,
            "componentType" : 5126,
            "count" : 264,
            "max" : [
                1,
                0.9435567855834961,
                1
            ],
            "min" : [
                -1,
                -0.6527486443519592,
                -1
            ],
            "type" : "VEC3"
        },
        {
            "bufferView" : 1,
            "componentType" : 5126,
            "count" : 264,
            "type" : "VEC3"
        },
        {
            "bufferView" : 2,
            "componentType" : 5126,
            "count" : 264,
            "type" : "VEC2"
        },
        {
            "bufferView" : 3,
            "componentType" : 5123,
            "count" : 1344,
            "type" : "SCALAR"
        },
        {
            "bufferView" : 4,
            "componentType" : 5126,
            "count" : 873,
            "max" : [
                1,
                1,
                1
            ],
            "min" : [
                -1,
                -0.8980110883712769,
                -1
            ],
            "type" : "VEC3"
        },
        {
            "bufferView" : 5,
            "componentType" : 5126,
            "count" : 873,
            "type" : "VEC3"
        },
        {
            "bufferView" : 6,
            "componentType" : 5126,
            "count" : 873,
            "type" : "VEC2"
        },
        {
            "bufferView" : 7,
            "componentType" : 5123,
            "count" : 3444,
            "type" : "SCALAR"
        },
        {
            "bufferView" : 8,
            "componentType" : 5126,
            "count" : 363,
            "max" : [
                0.9199478030204773,
                -0.6527486443519592,
                0.9199476838111877
            ],
            "min" : [
                -0.9199478626251221,
                -0.8530712127685547,
                -0.9199478626251221
            ],
            "type" : "VEC3"
        },
        {
            "bufferView" : 9,
            "componentType" : 5126,
            "count" : 363,
            "type" : "VEC3"
        },
        {
            "bufferView" : 10,
            "componentType" : 5126,
            "count" : 363,
            "type" : "VEC2"
        },
        {
            "bufferView" : 11,
            "componentType" : 5123,
            "count" : 1920,
            "type" : "SCALAR"
        },
        {
            "bufferView" : 12,
            "componentType" : 5126,
            "count" : 1377,
            "max" : [
                2.166778564453125,
                9.5367431640625e-07,
                49.31657409667969
            ],
            "min" : [
                -1,
                -0.07166548818349838,
                -1
            ],
            "type" : "VEC3"
        },
        {
            "bufferView" : 13,
            "componentType" : 5126,
            "count" : 1377,
            "type" : "VEC3"
        },
        {
            "bufferView" : 14,
            "componentType" : 5126,
            "count" : 1377,
            "type" : "VEC2"
        },
        {
            "bufferView" : 15,
            "componentType" : 5123,
            "count" : 3564,
            "type" : "SCALAR"
        },
        {
            "bufferView" : 16,
            "componentType" : 5126,
            "count" : 147,
            "max" : [
                1.1454095840454102,
                2.343291915216962e-14,
                1.0000004768371582
            ],
            "min" : [
                -0.8545920848846436,
                -0.214013010263443,
                -1.000000238418579
            ],
            "type" : "VEC3"
        },
        {
            "bufferView" : 17,
            "componentType" : 5126,
            "count" : 147,
            "type" : "VEC3"
        },
        {
            "bufferView" : 18,
            "componentType" : 5126,
            "count" : 147,
            "type" : "VEC2"
        },
        {
            "bufferView" : 19,
            "componentType" : 5123,
            "count" : 183,
            "type" : "SCALAR"
        }
    ],
    "bufferViews" : [
        {
            "buffer" : 0,
            "byteLength" : 3168,
            "byteOffset" : 0
        },
        {
            "buffer" : 0,
            "byteLength" : 3168,
            "byteOffset" : 3168
        },
        {
            "buffer" : 0,
            "byteLength" : 2112,
            "byteOffset" : 6336
        },
        {
            "buffer" : 0,
            "byteLength" : 2688,
            "byteOffset" : 8448
        },
        {
            "buffer" : 0,
            "byteLength" : 10476,
            "byteOffset" : 11136
        },
        {
            "buffer" : 0,
            "byteLength" : 10476,
            "byteOffset" : 21612
        },
        {
            "buffer" : 0,
            "byteLength" : 6984,
            "byteOffset" : 32088
        },
        {
            "buffer" : 0,
            "byteLength" : 6888,
            "byteOffset" : 39072
        },
        {
            "buffer" : 0,
            "byteLength" : 4356,
            "byteOffset" : 45960
        },
        {
            "buffer" : 0,
            "byteLength" : 4356,
            "byteOffset" : 50316
        },
        {
            "buffer" : 0,
            "byteLength" : 2904,
            "byteOffset" : 54672
        },
        {
            "buffer" : 0,
            "byteLength" : 3840,
            "byteOffset" : 57576
        },
        {
            "buffer" : 0,
            "byteLength" : 16524,
            "byteOffset" : 61416
        },
        {
            "buffer" : 0,
            "byteLength" : 16524,
            "byteOffset" : 77940
        },
        {
            "buffer" : 0,
            "byteLength" : 11016,
            "byteOffset" : 94464
        },
        {
            "buffer" : 0,
            "byteLength" : 7128,
            "byteOffset" : 105480
        },
        {
            "buffer" : 0,
            "byteLength" : 1764,
            "byteOffset" : 112608
        },
        {
            "buffer" : 0,
            "byteLength" : 1764,
            "byteOffset" : 114372
        },
        {
            "buffer" : 0,
            "byteLength" : 1176,
            "byteOffset" : 116136
        },
        {
            "buffer" : 0,
            "byteLength" : 366,
            "byteOffset" : 117312
        }
    ],
    "buffers" : [
        {
            "byteLength" : 117680,
            "uri" : "data:application/octet-stream;base64,"
        }
    ]
}
