{
    "asset" : {
        "generator" : "Khronos glTF Blender I/O v3.2.43",
        "version" : "2.0"
    },
    "scene" : 0,
    "scenes" : [
        {
            "name" : "Scene",
            "nodes" : [
                0,
                1,
                2,
                7
            ]
        }
    ],
    "nodes" : [
        {
            "name" : "Lattice",
            "rotation" : [
                0.7071067094802856,
                0,
                0,
                0.7071068286895752
            ],
            "scale" : [
                0.17422102391719818,
                0.17422102391719818,
                0.4418770968914032
            ],
            "translation" : [
                0,
                0.8272019028663635,
                0
            ]
        },
        {
            "name" : "Lattice.001",
            "rotation" : [
                0.7071067094802856,
                0,
                0,
                0.7071068286895752
            ],
            "scale" : [
                2.0317699909210205,
                2.0317699909210205,
                1.413751244544983
            ]
        },
        {
            "name" : "Lattice.002",
            "rotation" : [
                0.7071067094802856,
                0,
                0,
                0.7071068286895752
            ],
            "scale" : [
                0.17422102391719818,
                0.17422102391719818,
                0.4418770968914032
            ],
            "translation" : [
                0,
                0.8272019028663635,
                0
            ]
        },
        {
            "mesh" : 0,
            "name" : "BezierCurve.002",
            "rotation" : [
                0.5000000596046448,
                -0.5,
                -0.4999999403953552,
                0.5
            ],
            "scale" : [
                0.35671237111091614,
                0.3567124009132385,
                0.3567124009132385
            ],
            "translation" : [
                1.186204195022583,
                2.393620014190674,
                -0.6774698495864868
            ]
        },
        {
            "mesh" : 1,
            "name" : "BezierCurve.003",
            "rotation" : [
                -0.5000000596046448,
                -0.5,
                0.4999999403953552,
                0.5
            ],
            "scale" : [
                -0.35671237111091614,
                -0.3567124009132385,
                -0.3567124009132385
            ],
            "translation" : [
                -1.11800217628479,
                2.393620014190674,
                -0.6774702668190002
            ]
        },
        {
            "mesh" : 2,
            "name" : "Cube.063",
            "scale" : [
                0.6793384552001953,
                0.35671237111091614,
                0.6774102449417114
            ],
            "translation" : [
                0.03351273760199547,
                0.059413447976112366,
                -0.675041913986206
            ]
        },
        {
            "mesh" : 3,
            "name" : "Text.007",
            "rotation" : [
                0.7282258868217468,
                -0.0023787899408489466,
                -0.002378791570663452,
                0.6853289604187012
            ],
            "scale" : [
                1.2359737157821655,
                1.235973834991455,
                1.2359737157821655
            ],
            "translation" : [
                -0.1818924844264984,
                1.967978596687317,
                0.2964974045753479
            ]
        },
        {
            "children" : [
                3,
                4,
                5,
                6
            ],
            "mesh" : 4,
            "name" : "Circle.017",
            "rotation" : [
                -0.01266048289835453,
                -0.06493543088436127,
                -0.06922409683465958,
                0.9954050183296204
            ],
            "scale" : [
                4.934082984924316,
                4.934082984924316,
                4.934082984924316
            ],
            "translation" : [
                0.3624076545238495,
                2.0173659324645996,
                26.811830520629883
            ]
        }
    ],
    "materials" : [
        {
            "doubleSided" : true,
            "name" : "Yellow",
            "pbrMetallicRoughness" : {
                "baseColorFactor" : [
                    0.15896062552928925,
                    0.033104583621025085,
                    0.39157238602638245,
                    1
                ],
                "metallicFactor" : 0,
                "roughnessFactor" : 0.3303571343421936
            }
        },
        {
            "doubleSided" : true,
            "name" : "Brown",
            "pbrMetallicRoughness" : {
                "baseColorFactor" : [
                    0.06170644983649254,
                    0.014600103721022606,
                    0.1451679766178131,
                    1
                ],
                "metallicFactor" : 0,
                "roughnessFactor" : 0.5
            }
        },
        {
            "doubleSided" : true,
            "name" : "White",
            "pbrMetallicRoughness" : {
                "baseColorFactor" : [
                    0.391571968793869,
                    0.09084124118089676,
                    0.93011075258255,
                    1
                ],
                "metallicFactor" : 0.1294642835855484,
                "roughnessFactor" : 0.5
            }
        }
    ],
    "meshes" : [
        {
            "name" : "BezierCurve.002",
            "primitives" : [
                {
                    "attributes" : {
                        "POSITION" : 0,
                        "NORMAL" : 1,
                        "TEXCOORD_0" : 2
                    },
                    "indices" : 3,
                    "material" : 0
                }
            ]
        },
        {
            "name" : "BezierCurve.004",
            "primitives" : [
                {
                    "attributes" : {
                        "POSITION" : 4,
                        "NORMAL" : 5,
                        "TEXCOORD_0" : 6
                    },
                    "indices" : 3,
                    "material" : 0
                }
            ]
        },
        {
            "name" : "Cube.043",
            "primitives" : [
                {
                    "attributes" : {
                        "POSITION" : 7,
                        "NORMAL" : 8,
                        "TEXCOORD_0" : 9
                    },
                    "indices" : 10,
                    "material" : 1
                },
                {
                    "attributes" : {
                        "POSITION" : 11,
                        "NORMAL" : 12,
                        "TEXCOORD_0" : 13
                    },
                    "indices" : 14,
                    "material" : 0
                }
            ]
        },
        {
            "name" : "Text.007",
            "primitives" : [
                {
                    "attributes" : {
                        "POSITION" : 15,
                        "NORMAL" : 16,
                        "TEXCOORD_0" : 17
                    },
                    "indices" : 18,
                    "material" : 2
                }
            ]
        },
        {
            "name" : "Circle.017",
            "primitives" : [
                {
                    "attributes" : {
                        "POSITION" : 19,
                        "NORMAL" : 20,
                        "TEXCOORD_0" : 21
                    },
                    "indices" : 22,
                    "material" : 0
                }
            ]
        }
    ],
    "accessors" : [
        {
            "bufferView" : 0,
            "componentType" : 5126,
            "count" : 1095,
            "max" : [
                1.920633316040039,
                0.15598848462104797,
                1.3276828527450562
            ],
            "min" : [
                -1.03970468044281,
                -0.15598849952220917,
                -1.5725994110107422
            ],
            "type" : "VEC3"
        },
        {
            "bufferView" : 1,
            "componentType" : 5126,
            "count" : 1095,
            "type" : "VEC3"
        },
        {
            "bufferView" : 2,
            "componentType" : 5126,
            "count" : 1095,
            "type" : "VEC2"
        },
        {
            "bufferView" : 3,
            "componentType" : 5123,
            "count" : 6048,
            "type" : "SCALAR"
        },
        {
            "bufferView" : 4,
            "componentType" : 5126,
            "count" : 1095,
            "max" : [
                1.920633316040039,
                0.15598848462104797,
                1.3276828527450562
            ],
            "min" : [
                -1.03970468044281,
                -0.15598849952220917,
                -1.5725994110107422
            ],
            "type" : "VEC3"
        },
        {
            "bufferView" : 5,
            "componentType" : 5126,
            "count" : 1095,
            "type" : "VEC3"
        },
        {
            "bufferView" : 6,
            "componentType" : 5126,
            "count" : 1095,
            "type" : "VEC2"
        },
        {
            "bufferView" : 7,
            "componentType" : 5126,
            "count" : 76,
            "max" : [
                1,
                1,
                1
            ],
            "min" : [
                -1,
                -0.2356281876564026,
                -1
            ],
            "type" : "VEC3"
        },
        {
            "bufferView" : 8,
            "componentType" : 5126,
            "count" : 76,
            "type" : "VEC3"
        },
        {
            "bufferView" : 9,
            "componentType" : 5126,
            "count" : 76,
            "type" : "VEC2"
        },
        {
            "bufferView" : 10,
            "componentType" : 5123,
            "count" : 324,
            "type" : "SCALAR"
        },
        {
            "bufferView" : 11,
            "componentType" : 5126,
            "count" : 32,
            "max" : [
                0.6125777363777161,
                0.7606440186500549,
                1.0589704513549805
            ],
            "min" : [
                -0.6125747561454773,
                0.0037276148796081543,
                0.9643619656562805
            ],
            "type" : "VEC3"
        },
        {
            "bufferView" : 12,
            "componentType" : 5126,
            "count" : 32,
            "type" : "VEC3"
        },
        {
            "bufferView" : 13,
            "componentType" : 5126,
            "count" : 32,
            "type" : "VEC2"
        },
        {
            "bufferView" : 14,
            "componentType" : 5123,
            "count" : 180,
            "type" : "SCALAR"
        },
        {
            "bufferView" : 15,
            "componentType" : 5126,
            "count" : 2064,
            "max" : [
                0.3207399249076843,
                0.07000000029802322,
                0.03999999910593033
            ],
            "min" : [
                0.03367877006530762,
                -0.07000000029802322,
                -0.5419949293136597
            ],
            "type" : "VEC3"
        },
        {
            "bufferView" : 16,
            "componentType" : 5126,
            "count" : 2064,
            "type" : "VEC3"
        },
        {
            "bufferView" : 17,
            "componentType" : 5126,
            "count" : 2064,
            "type" : "VEC2"
        },
        {
            "bufferView" : 18,
            "componentType" : 5123,
            "count" : 9204,
            "type" : "SCALAR"
        },
        {
            "bufferView" : 19,
            "componentType" : 5126,
            "count" : 480,
            "max" : [
                1.0335121154785156,
                2.847616672515869,
                0.32495689392089844
            ],
            "min" : [
                -0.9664878845214844,
                0.300823450088501,
                -1.6750431060791016
            ],
            "type" : "VEC3"
        },
        {
            "bufferView" : 20,
            "componentType" : 5126,
            "count" : 480,
            "type" : "VEC3"
        },
        {
            "bufferView" : 21,
            "componentType" : 5126,
            "count" : 480,
            "type" : "VEC2"
        },
        {
            "bufferView" : 22,
            "componentType" : 5123,
            "count" : 2778,
            "type" : "SCALAR"
        }
    ],
    "bufferViews" : [
        {
            "buffer" : 0,
            "byteLength" : 13140,
            "byteOffset" : 0
        },
        {
            "buffer" : 0,
            "byteLength" : 13140,
            "byteOffset" : 13140
        },
        {
            "buffer" : 0,
            "byteLength" : 8760,
            "byteOffset" : 26280
        },
        {
            "buffer" : 0,
            "byteLength" : 12096,
            "byteOffset" : 35040
        },
        {
            "buffer" : 0,
            "byteLength" : 13140,
            "byteOffset" : 47136
        },
        {
            "buffer" : 0,
            "byteLength" : 13140,
            "byteOffset" : 60276
        },
        {
            "buffer" : 0,
            "byteLength" : 8760,
            "byteOffset" : 73416
        },
        {
            "buffer" : 0,
            "byteLength" : 912,
            "byteOffset" : 82176
        },
        {
            "buffer" : 0,
            "byteLength" : 912,
            "byteOffset" : 83088
        },
        {
            "buffer" : 0,
            "byteLength" : 608,
            "byteOffset" : 84000
        },
        {
            "buffer" : 0,
            "byteLength" : 648,
            "byteOffset" : 84608
        },
        {
            "buffer" : 0,
            "byteLength" : 384,
            "byteOffset" : 85256
        },
        {
            "buffer" : 0,
            "byteLength" : 384,
            "byteOffset" : 85640
        },
        {
            "buffer" : 0,
            "byteLength" : 256,
            "byteOffset" : 86024
        },
        {
            "buffer" : 0,
            "byteLength" : 360,
            "byteOffset" : 86280
        },
        {
            "buffer" : 0,
            "byteLength" : 24768,
            "byteOffset" : 86640
        },
        {
            "buffer" : 0,
            "byteLength" : 24768,
            "byteOffset" : 111408
        },
        {
            "buffer" : 0,
            "byteLength" : 16512,
            "byteOffset" : 136176
        },
        {
            "buffer" : 0,
            "byteLength" : 18408,
            "byteOffset" : 152688
        },
        {
            "buffer" : 0,
            "byteLength" : 5760,
            "byteOffset" : 171096
        },
        {
            "buffer" : 0,
            "byteLength" : 5760,
            "byteOffset" : 176856
        },
        {
            "buffer" : 0,
            "byteLength" : 3840,
            "byteOffset" : 182616
        },
        {
            "buffer" : 0,
            "byteLength" : 5556,
            "byteOffset" : 186456
        }
    ],
    "buffers" : [
        {
            "byteLength" : 192012,
            "uri" : "data:application/octet-stream;base64,"
        }
    ]
}
