<?xml version="1.0" encoding="utf-8"?>
<svg id="visual" viewBox="0 0 960 540" width="960" height="540" version="1.1" xmlns="http://www.w3.org/2000/svg">
  <rect x="0" y="0" width="960" height="540" style="fill: none; fill-opacity: 0;"/>
  <g transform="translate(960, 0)">
    <path d="M0 297C-30.8 294 -61.5 290.9 -91.8 282.5C-122.1 274 -151.8 260.1 -174 239.5C-196.1 218.8 -210.6 191.3 -229 166.3C-247.3 141.3 -269.5 118.8 -281.5 91.5C-293.5 64.2 -295.2 32.1 -297 0L0 0Z" fill="#000679"/>
  </g>
  <g transform="translate(0, 540)">
    <path d="M0 -297C32.3 -295.9 64.7 -294.8 91.8 -282.5C118.9 -270.2 140.8 -246.7 165.8 -228.1C190.8 -209.6 218.9 -195.9 239.5 -174C260.1 -152.1 273.2 -121.8 281.5 -91.5C289.9 -61.1 293.4 -30.5 297 0L0 0Z" fill="#000679"/>
  </g>
</svg>