<svg id="visual" viewBox="0 0 900 600" width="900" height="600" xmlns="http://www.w3.org/2000/svg" xmlns:xlink="http://www.w3.org/1999/xlink" version="1.1"><rect x="0" y="0" width="900" height="600" fill="#ccc"></rect><g transform="translate(481.1337255401527 275.0793818284259)"><path d="M160.9 -217.8C229.1 -206.4 319.2 -196.7 329 -155.9C338.9 -115.1 268.4 -43.3 221.5 6.2C174.5 55.8 151 83.2 133.5 131.2C116 179.2 104.5 247.9 66.7 285.8C28.9 323.7 -35.1 330.7 -90.3 312.3C-145.5 293.9 -191.8 250.1 -245.5 203.9C-299.3 157.7 -360.5 109.2 -382.5 46.6C-404.5 -15.9 -387.4 -92.5 -348.4 -151.4C-309.5 -210.3 -248.8 -251.5 -187.1 -265.8C-125.4 -280.2 -62.7 -267.6 -8.2 -254.8C46.3 -242.1 92.6 -229.1 160.9 -217.8" fill="#000679"></path></g></svg>