<?xml version="1.0" encoding="utf-8"?>
<svg id="visual" viewBox="0 0 900 600" width="900" height="600" version="1.1" xmlns="http://www.w3.org/2000/svg">
  <rect x="0" y="0" width="900" height="600" style="fill: none; fill-opacity: 0;"/>
  <path d="M0 465L13.7 469.2C27.3 473.3 54.7 481.7 82 480.5C109.3 479.3 136.7 468.7 163.8 470.3C191 472 218 486 245.2 487.2C272.3 488.3 299.7 476.7 327 476.5C354.3 476.3 381.7 487.7 409 486.8C436.3 486 463.7 473 491 463.7C518.3 454.3 545.7 448.7 573 446.7C600.3 444.7 627.7 446.3 654.8 445.8C682 445.3 709 442.7 736.2 453.8C763.3 465 790.7 490 818 495.2C845.3 500.3 872.7 485.7 886.3 478.3L900 471L900 0L886.3 0C872.7 0 845.3 0 818 0C790.7 0 763.3 0 736.2 0C709 0 682 0 654.8 0C627.7 0 600.3 0 573 0C545.7 0 518.3 0 491 0C463.7 0 436.3 0 409 0C381.7 0 354.3 0 327 0C299.7 0 272.3 0 245.2 0C218 0 191 0 163.8 0C136.7 0 109.3 0 82 0C54.7 0 27.3 0 13.7 0L0 0Z" fill="#000679"/>
  <path d="M0 436L13.7 435.8C27.3 435.7 54.7 435.3 82 436.3C109.3 437.3 136.7 439.7 163.8 435.3C191 431 218 420 245.2 424.8C272.3 429.7 299.7 450.3 327 450C354.3 449.7 381.7 428.3 409 416.8C436.3 405.3 463.7 403.7 491 416.2C518.3 428.7 545.7 455.3 573 463.7C600.3 472 627.7 462 654.8 457.2C682 452.3 709 452.7 736.2 449.8C763.3 447 790.7 441 818 444.2C845.3 447.3 872.7 459.7 886.3 465.8L900 472L900 0L886.3 0C872.7 0 845.3 0 818 0C790.7 0 763.3 0 736.2 0C709 0 682 0 654.8 0C627.7 0 600.3 0 573 0C545.7 0 518.3 0 491 0C463.7 0 436.3 0 409 0C381.7 0 354.3 0 327 0C299.7 0 272.3 0 245.2 0C218 0 191 0 163.8 0C136.7 0 109.3 0 82 0C54.7 0 27.3 0 13.7 0L0 0Z" fill="#1a0881"/>
  <path d="M0 422L13.7 412.5C27.3 403 54.7 384 82 372.8C109.3 361.7 136.7 358.3 163.8 368.7C191 379 218 403 245.2 412.7C272.3 422.3 299.7 417.7 327 407.3C354.3 397 381.7 381 409 384.3C436.3 387.7 463.7 410.3 491 416.7C518.3 423 545.7 413 573 411.3C600.3 409.7 627.7 416.3 654.8 409.5C682 402.7 709 382.3 736.2 373.2C763.3 364 790.7 366 818 369C845.3 372 872.7 376 886.3 378L900 380L900 0L886.3 0C872.7 0 845.3 0 818 0C790.7 0 763.3 0 736.2 0C709 0 682 0 654.8 0C627.7 0 600.3 0 573 0C545.7 0 518.3 0 491 0C463.7 0 436.3 0 409 0C381.7 0 354.3 0 327 0C299.7 0 272.3 0 245.2 0C218 0 191 0 163.8 0C136.7 0 109.3 0 82 0C54.7 0 27.3 0 13.7 0L0 0Z" fill="#2b0b89"/>
  <path d="M0 367L13.7 361C27.3 355 54.7 343 82 348.3C109.3 353.7 136.7 376.3 163.8 385.2C191 394 218 389 245.2 386C272.3 383 299.7 382 327 380.2C354.3 378.3 381.7 375.7 409 374C436.3 372.3 463.7 371.7 491 369.5C518.3 367.3 545.7 363.7 573 363.7C600.3 363.7 627.7 367.3 654.8 363C682 358.7 709 346.3 736.2 340.8C763.3 335.3 790.7 336.7 818 336.5C845.3 336.3 872.7 334.7 886.3 333.8L900 333L900 0L886.3 0C872.7 0 845.3 0 818 0C790.7 0 763.3 0 736.2 0C709 0 682 0 654.8 0C627.7 0 600.3 0 573 0C545.7 0 518.3 0 491 0C463.7 0 436.3 0 409 0C381.7 0 354.3 0 327 0C299.7 0 272.3 0 245.2 0C218 0 191 0 163.8 0C136.7 0 109.3 0 82 0C54.7 0 27.3 0 13.7 0L0 0Z" fill="#380f91"/>
  <path d="M0 282L13.7 285C27.3 288 54.7 294 82 303.5C109.3 313 136.7 326 163.8 333.3C191 340.7 218 342.3 245.2 338.2C272.3 334 299.7 324 327 315.7C354.3 307.3 381.7 300.7 409 296.2C436.3 291.7 463.7 289.3 491 293.3C518.3 297.3 545.7 307.7 573 309.7C600.3 311.7 627.7 305.3 654.8 308.5C682 311.7 709 324.3 736.2 325C763.3 325.7 790.7 314.3 818 312.7C845.3 311 872.7 319 886.3 323L900 327L900 0L886.3 0C872.7 0 845.3 0 818 0C790.7 0 763.3 0 736.2 0C709 0 682 0 654.8 0C627.7 0 600.3 0 573 0C545.7 0 518.3 0 491 0C463.7 0 436.3 0 409 0C381.7 0 354.3 0 327 0C299.7 0 272.3 0 245.2 0C218 0 191 0 163.8 0C136.7 0 109.3 0 82 0C54.7 0 27.3 0 13.7 0L0 0Z" fill="#451299"/>
  <path d="M0 271L13.7 276.2C27.3 281.3 54.7 291.7 82 290.7C109.3 289.7 136.7 277.3 163.8 278.2C191 279 218 293 245.2 294.3C272.3 295.7 299.7 284.3 327 282C354.3 279.7 381.7 286.3 409 284.5C436.3 282.7 463.7 272.3 491 266C518.3 259.7 545.7 257.3 573 257.8C600.3 258.3 627.7 261.7 654.8 266C682 270.3 709 275.7 736.2 282.2C763.3 288.7 790.7 296.3 818 293.2C845.3 290 872.7 276 886.3 269L900 262L900 0L886.3 0C872.7 0 845.3 0 818 0C790.7 0 763.3 0 736.2 0C709 0 682 0 654.8 0C627.7 0 600.3 0 573 0C545.7 0 518.3 0 491 0C463.7 0 436.3 0 409 0C381.7 0 354.3 0 327 0C299.7 0 272.3 0 245.2 0C218 0 191 0 163.8 0C136.7 0 109.3 0 82 0C54.7 0 27.3 0 13.7 0L0 0Z" fill="#5215a1"/>
  <path d="M0 263L13.7 262.5C27.3 262 54.7 261 82 254.2C109.3 247.3 136.7 234.7 163.8 234.5C191 234.3 218 246.7 245.2 247.3C272.3 248 299.7 237 327 236.8C354.3 236.7 381.7 247.3 409 252.8C436.3 258.3 463.7 258.7 491 258.8C518.3 259 545.7 259 573 256.2C600.3 253.3 627.7 247.7 654.8 243.2C682 238.7 709 235.3 736.2 229.8C763.3 224.3 790.7 216.7 818 215C845.3 213.3 872.7 217.7 886.3 219.8L900 222L900 0L886.3 0C872.7 0 845.3 0 818 0C790.7 0 763.3 0 736.2 0C709 0 682 0 654.8 0C627.7 0 600.3 0 573 0C545.7 0 518.3 0 491 0C463.7 0 436.3 0 409 0C381.7 0 354.3 0 327 0C299.7 0 272.3 0 245.2 0C218 0 191 0 163.8 0C136.7 0 109.3 0 82 0C54.7 0 27.3 0 13.7 0L0 0Z" fill="#5e19a9"/>
  <path d="M0 213L13.7 211.2C27.3 209.3 54.7 205.7 82 207.3C109.3 209 136.7 216 163.8 219.5C191 223 218 223 245.2 222.7C272.3 222.3 299.7 221.7 327 222.5C354.3 223.3 381.7 225.7 409 223.2C436.3 220.7 463.7 213.3 491 205C518.3 196.7 545.7 187.3 573 187C600.3 186.7 627.7 195.3 654.8 200C682 204.7 709 205.3 736.2 203.5C763.3 201.7 790.7 197.3 818 194.3C845.3 191.3 872.7 189.7 886.3 188.8L900 188L900 0L886.3 0C872.7 0 845.3 0 818 0C790.7 0 763.3 0 736.2 0C709 0 682 0 654.8 0C627.7 0 600.3 0 573 0C545.7 0 518.3 0 491 0C463.7 0 436.3 0 409 0C381.7 0 354.3 0 327 0C299.7 0 272.3 0 245.2 0C218 0 191 0 163.8 0C136.7 0 109.3 0 82 0C54.7 0 27.3 0 13.7 0L0 0Z" fill="#6a1cb1"/>
  <path d="M0 174L13.7 175.3C27.3 176.7 54.7 179.3 82 181.8C109.3 184.3 136.7 186.7 163.8 186C191 185.3 218 181.7 245.2 178.5C272.3 175.3 299.7 172.7 327 169.3C354.3 166 381.7 162 409 160.8C436.3 159.7 463.7 161.3 491 160.5C518.3 159.7 545.7 156.3 573 160.2C600.3 164 627.7 175 654.8 179.2C682 183.3 709 180.7 736.2 176.7C763.3 172.7 790.7 167.3 818 161.7C845.3 156 872.7 150 886.3 147L900 144L900 0L886.3 0C872.7 0 845.3 0 818 0C790.7 0 763.3 0 736.2 0C709 0 682 0 654.8 0C627.7 0 600.3 0 573 0C545.7 0 518.3 0 491 0C463.7 0 436.3 0 409 0C381.7 0 354.3 0 327 0C299.7 0 272.3 0 245.2 0C218 0 191 0 163.8 0C136.7 0 109.3 0 82 0C54.7 0 27.3 0 13.7 0L0 0Z" fill="#7720b9"/>
  <path d="M0 102L13.7 103.5C27.3 105 54.7 108 82 110.7C109.3 113.3 136.7 115.7 163.8 114.2C191 112.7 218 107.3 245.2 107.3C272.3 107.3 299.7 112.7 327 117.2C354.3 121.7 381.7 125.3 409 129.5C436.3 133.7 463.7 138.3 491 134.3C518.3 130.3 545.7 117.7 573 118.3C600.3 119 627.7 133 654.8 136.7C682 140.3 709 133.7 736.2 131.8C763.3 130 790.7 133 818 130.7C845.3 128.3 872.7 120.7 886.3 116.8L900 113L900 0L886.3 0C872.7 0 845.3 0 818 0C790.7 0 763.3 0 736.2 0C709 0 682 0 654.8 0C627.7 0 600.3 0 573 0C545.7 0 518.3 0 491 0C463.7 0 436.3 0 409 0C381.7 0 354.3 0 327 0C299.7 0 272.3 0 245.2 0C218 0 191 0 163.8 0C136.7 0 109.3 0 82 0C54.7 0 27.3 0 13.7 0L0 0Z" fill="#8323c1"/>
  <path d="M0 86L13.7 88C27.3 90 54.7 94 82 95.5C109.3 97 136.7 96 163.8 92.2C191 88.3 218 81.7 245.2 81.5C272.3 81.3 299.7 87.7 327 90.7C354.3 93.7 381.7 93.3 409 91.5C436.3 89.7 463.7 86.3 491 84.5C518.3 82.7 545.7 82.3 573 83C600.3 83.7 627.7 85.3 654.8 84.7C682 84 709 81 736.2 77.3C763.3 73.7 790.7 69.3 818 68.3C845.3 67.3 872.7 69.7 886.3 70.8L900 72L900 0L886.3 0C872.7 0 845.3 0 818 0C790.7 0 763.3 0 736.2 0C709 0 682 0 654.8 0C627.7 0 600.3 0 573 0C545.7 0 518.3 0 491 0C463.7 0 436.3 0 409 0C381.7 0 354.3 0 327 0C299.7 0 272.3 0 245.2 0C218 0 191 0 163.8 0C136.7 0 109.3 0 82 0C54.7 0 27.3 0 13.7 0L0 0Z" fill="#9027c8"/>
  <path d="M0 56L13.7 51.2C27.3 46.3 54.7 36.7 82 35.8C109.3 35 136.7 43 163.8 46.7C191 50.3 218 49.7 245.2 45.8C272.3 42 299.7 35 327 31.8C354.3 28.7 381.7 29.3 409 29.7C436.3 30 463.7 30 491 31.8C518.3 33.7 545.7 37.3 573 38.8C600.3 40.3 627.7 39.7 654.8 39.8C682 40 709 41 736.2 39.5C763.3 38 790.7 34 818 33.5C845.3 33 872.7 36 886.3 37.5L900 39L900 0L886.3 0C872.7 0 845.3 0 818 0C790.7 0 763.3 0 736.2 0C709 0 682 0 654.8 0C627.7 0 600.3 0 573 0C545.7 0 518.3 0 491 0C463.7 0 436.3 0 409 0C381.7 0 354.3 0 327 0C299.7 0 272.3 0 245.2 0C218 0 191 0 163.8 0C136.7 0 109.3 0 82 0C54.7 0 27.3 0 13.7 0L0 0Z" fill="#9c2ad0"/>
</svg>