<svg id="visual" viewBox="0 0 900 600" width="900" height="600" xmlns="http://www.w3.org/2000/svg" xmlns:xlink="http://www.w3.org/1999/xlink" version="1.1"><rect x="0" y="0" width="900" height="600" fill="#ccc"></rect><path d="M0 492L13.7 484.3C27.3 476.7 54.7 461.3 82 466.2C109.3 471 136.7 496 163.8 509C191 522 218 523 245.2 508C272.3 493 299.7 462 327 452.2C354.3 442.3 381.7 453.7 409 459.5C436.3 465.3 463.7 465.7 491 465.3C518.3 465 545.7 464 573 468C600.3 472 627.7 481 654.8 475.8C682 470.7 709 451.3 736.2 448.2C763.3 445 790.7 458 818 466.2C845.3 474.3 872.7 477.7 886.3 479.3L900 481L900 0L886.3 0C872.7 0 845.3 0 818 0C790.7 0 763.3 0 736.2 0C709 0 682 0 654.8 0C627.7 0 600.3 0 573 0C545.7 0 518.3 0 491 0C463.7 0 436.3 0 409 0C381.7 0 354.3 0 327 0C299.7 0 272.3 0 245.2 0C218 0 191 0 163.8 0C136.7 0 109.3 0 82 0C54.7 0 27.3 0 13.7 0L0 0Z" fill="#000679"></path><path d="M0 422L13.7 417.5C27.3 413 54.7 404 82 403.3C109.3 402.7 136.7 410.3 163.8 422.5C191 434.7 218 451.3 245.2 450.2C272.3 449 299.7 430 327 427.8C354.3 425.7 381.7 440.3 409 444.8C436.3 449.3 463.7 443.7 491 433C518.3 422.3 545.7 406.7 573 406.5C600.3 406.3 627.7 421.7 654.8 435C682 448.3 709 459.7 736.2 463C763.3 466.3 790.7 461.7 818 450.7C845.3 439.7 872.7 422.3 886.3 413.7L900 405L900 0L886.3 0C872.7 0 845.3 0 818 0C790.7 0 763.3 0 736.2 0C709 0 682 0 654.8 0C627.7 0 600.3 0 573 0C545.7 0 518.3 0 491 0C463.7 0 436.3 0 409 0C381.7 0 354.3 0 327 0C299.7 0 272.3 0 245.2 0C218 0 191 0 163.8 0C136.7 0 109.3 0 82 0C54.7 0 27.3 0 13.7 0L0 0Z" fill="#1c0982"></path><path d="M0 355L13.7 361.5C27.3 368 54.7 381 82 380.2C109.3 379.3 136.7 364.7 163.8 356.8C191 349 218 348 245.2 361.5C272.3 375 299.7 403 327 403C354.3 403 381.7 375 409 364.5C436.3 354 463.7 361 491 361.3C518.3 361.7 545.7 355.3 573 359.3C600.3 363.3 627.7 377.7 654.8 384C682 390.3 709 388.7 736.2 382.3C763.3 376 790.7 365 818 371.2C845.3 377.3 872.7 400.7 886.3 412.3L900 424L900 0L886.3 0C872.7 0 845.3 0 818 0C790.7 0 763.3 0 736.2 0C709 0 682 0 654.8 0C627.7 0 600.3 0 573 0C545.7 0 518.3 0 491 0C463.7 0 436.3 0 409 0C381.7 0 354.3 0 327 0C299.7 0 272.3 0 245.2 0C218 0 191 0 163.8 0C136.7 0 109.3 0 82 0C54.7 0 27.3 0 13.7 0L0 0Z" fill="#2d0c8b"></path><path d="M0 348L13.7 344.3C27.3 340.7 54.7 333.3 82 334.5C109.3 335.7 136.7 345.3 163.8 344C191 342.7 218 330.3 245.2 331C272.3 331.7 299.7 345.3 327 353.2C354.3 361 381.7 363 409 363.8C436.3 364.7 463.7 364.3 491 364.7C518.3 365 545.7 366 573 357.3C600.3 348.7 627.7 330.3 654.8 326C682 321.7 709 331.3 736.2 331.7C763.3 332 790.7 323 818 327C845.3 331 872.7 348 886.3 356.5L900 365L900 0L886.3 0C872.7 0 845.3 0 818 0C790.7 0 763.3 0 736.2 0C709 0 682 0 654.8 0C627.7 0 600.3 0 573 0C545.7 0 518.3 0 491 0C463.7 0 436.3 0 409 0C381.7 0 354.3 0 327 0C299.7 0 272.3 0 245.2 0C218 0 191 0 163.8 0C136.7 0 109.3 0 82 0C54.7 0 27.3 0 13.7 0L0 0Z" fill="#3c1094"></path><path d="M0 302L13.7 300C27.3 298 54.7 294 82 296.8C109.3 299.7 136.7 309.3 163.8 307.5C191 305.7 218 292.3 245.2 285.8C272.3 279.3 299.7 279.7 327 285.8C354.3 292 381.7 304 409 308.7C436.3 313.3 463.7 310.7 491 312.5C518.3 314.3 545.7 320.7 573 316.5C600.3 312.3 627.7 297.7 654.8 298.7C682 299.7 709 316.3 736.2 322.2C763.3 328 790.7 323 818 312.2C845.3 301.3 872.7 284.7 886.3 276.3L900 268L900 0L886.3 0C872.7 0 845.3 0 818 0C790.7 0 763.3 0 736.2 0C709 0 682 0 654.8 0C627.7 0 600.3 0 573 0C545.7 0 518.3 0 491 0C463.7 0 436.3 0 409 0C381.7 0 354.3 0 327 0C299.7 0 272.3 0 245.2 0C218 0 191 0 163.8 0C136.7 0 109.3 0 82 0C54.7 0 27.3 0 13.7 0L0 0Z" fill="#4a139c"></path><path d="M0 256L13.7 251.8C27.3 247.7 54.7 239.3 82 239.2C109.3 239 136.7 247 163.8 251.7C191 256.3 218 257.7 245.2 255.3C272.3 253 299.7 247 327 247.5C354.3 248 381.7 255 409 258C436.3 261 463.7 260 491 256.3C518.3 252.7 545.7 246.3 573 247.7C600.3 249 627.7 258 654.8 264.5C682 271 709 275 736.2 276.3C763.3 277.7 790.7 276.3 818 271.8C845.3 267.3 872.7 259.7 886.3 255.8L900 252L900 0L886.3 0C872.7 0 845.3 0 818 0C790.7 0 763.3 0 736.2 0C709 0 682 0 654.8 0C627.7 0 600.3 0 573 0C545.7 0 518.3 0 491 0C463.7 0 436.3 0 409 0C381.7 0 354.3 0 327 0C299.7 0 272.3 0 245.2 0C218 0 191 0 163.8 0C136.7 0 109.3 0 82 0C54.7 0 27.3 0 13.7 0L0 0Z" fill="#5817a5"></path><path d="M0 245L13.7 236.7C27.3 228.3 54.7 211.7 82 207.8C109.3 204 136.7 213 163.8 212.3C191 211.7 218 201.3 245.2 201.7C272.3 202 299.7 213 327 217C354.3 221 381.7 218 409 220.7C436.3 223.3 463.7 231.7 491 230.3C518.3 229 545.7 218 573 212.7C600.3 207.3 627.7 207.7 654.8 211.3C682 215 709 222 736.2 222.5C763.3 223 790.7 217 818 212.2C845.3 207.3 872.7 203.7 886.3 201.8L900 200L900 0L886.3 0C872.7 0 845.3 0 818 0C790.7 0 763.3 0 736.2 0C709 0 682 0 654.8 0C627.7 0 600.3 0 573 0C545.7 0 518.3 0 491 0C463.7 0 436.3 0 409 0C381.7 0 354.3 0 327 0C299.7 0 272.3 0 245.2 0C218 0 191 0 163.8 0C136.7 0 109.3 0 82 0C54.7 0 27.3 0 13.7 0L0 0Z" fill="#661bae"></path><path d="M0 160L13.7 163.7C27.3 167.3 54.7 174.7 82 182C109.3 189.3 136.7 196.7 163.8 199.3C191 202 218 200 245.2 199.8C272.3 199.7 299.7 201.3 327 195.8C354.3 190.3 381.7 177.7 409 173.7C436.3 169.7 463.7 174.3 491 173.5C518.3 172.7 545.7 166.3 573 166C600.3 165.7 627.7 171.3 654.8 177.8C682 184.3 709 191.7 736.2 192.2C763.3 192.7 790.7 186.3 818 184.8C845.3 183.3 872.7 186.7 886.3 188.3L900 190L900 0L886.3 0C872.7 0 845.3 0 818 0C790.7 0 763.3 0 736.2 0C709 0 682 0 654.8 0C627.7 0 600.3 0 573 0C545.7 0 518.3 0 491 0C463.7 0 436.3 0 409 0C381.7 0 354.3 0 327 0C299.7 0 272.3 0 245.2 0C218 0 191 0 163.8 0C136.7 0 109.3 0 82 0C54.7 0 27.3 0 13.7 0L0 0Z" fill="#731fb6"></path><path d="M0 125L13.7 128.7C27.3 132.3 54.7 139.7 82 142C109.3 144.3 136.7 141.7 163.8 143.7C191 145.7 218 152.3 245.2 148.8C272.3 145.3 299.7 131.7 327 127.5C354.3 123.3 381.7 128.7 409 128C436.3 127.3 463.7 120.7 491 119.2C518.3 117.7 545.7 121.3 573 122.8C600.3 124.3 627.7 123.7 654.8 123.8C682 124 709 125 736.2 129.2C763.3 133.3 790.7 140.7 818 139.2C845.3 137.7 872.7 127.3 886.3 122.2L900 117L900 0L886.3 0C872.7 0 845.3 0 818 0C790.7 0 763.3 0 736.2 0C709 0 682 0 654.8 0C627.7 0 600.3 0 573 0C545.7 0 518.3 0 491 0C463.7 0 436.3 0 409 0C381.7 0 354.3 0 327 0C299.7 0 272.3 0 245.2 0C218 0 191 0 163.8 0C136.7 0 109.3 0 82 0C54.7 0 27.3 0 13.7 0L0 0Z" fill="#8122bf"></path><path d="M0 107L13.7 100.7C27.3 94.3 54.7 81.7 82 75.3C109.3 69 136.7 69 163.8 76.3C191 83.7 218 98.3 245.2 105.7C272.3 113 299.7 113 327 108.5C354.3 104 381.7 95 409 91.3C436.3 87.7 463.7 89.3 491 91.5C518.3 93.7 545.7 96.3 573 97.3C600.3 98.3 627.7 97.7 654.8 92.7C682 87.7 709 78.3 736.2 76C763.3 73.7 790.7 78.3 818 79.8C845.3 81.3 872.7 79.7 886.3 78.8L900 78L900 0L886.3 0C872.7 0 845.3 0 818 0C790.7 0 763.3 0 736.2 0C709 0 682 0 654.8 0C627.7 0 600.3 0 573 0C545.7 0 518.3 0 491 0C463.7 0 436.3 0 409 0C381.7 0 354.3 0 327 0C299.7 0 272.3 0 245.2 0C218 0 191 0 163.8 0C136.7 0 109.3 0 82 0C54.7 0 27.3 0 13.7 0L0 0Z" fill="#8e26c8"></path><path d="M0 50L13.7 52.3C27.3 54.7 54.7 59.3 82 62.3C109.3 65.3 136.7 66.7 163.8 63.3C191 60 218 52 245.2 46.5C272.3 41 299.7 38 327 39.8C354.3 41.7 381.7 48.3 409 49.5C436.3 50.7 463.7 46.3 491 47.8C518.3 49.3 545.7 56.7 573 56.7C600.3 56.7 627.7 49.3 654.8 46.3C682 43.3 709 44.7 736.2 43.2C763.3 41.7 790.7 37.3 818 37.8C845.3 38.3 872.7 43.7 886.3 46.3L900 49L900 0L886.3 0C872.7 0 845.3 0 818 0C790.7 0 763.3 0 736.2 0C709 0 682 0 654.8 0C627.7 0 600.3 0 573 0C545.7 0 518.3 0 491 0C463.7 0 436.3 0 409 0C381.7 0 354.3 0 327 0C299.7 0 272.3 0 245.2 0C218 0 191 0 163.8 0C136.7 0 109.3 0 82 0C54.7 0 27.3 0 13.7 0L0 0Z" fill="#9c2ad0"></path></svg>