<svg id="visual" viewBox="0 0 900 600" width="900" height="600" xmlns="http://www.w3.org/2000/svg" xmlns:xlink="http://www.w3.org/1999/xlink" version="1.1"><rect x="0" y="0" width="900" height="600" fill="#ccc"></rect><path d="M0 469L13.7 471.5C27.3 474 54.7 479 82 476.2C109.3 473.3 136.7 462.7 163.8 460.8C191 459 218 466 245.2 472.2C272.3 478.3 299.7 483.7 327 489.5C354.3 495.3 381.7 501.7 409 491.8C436.3 482 463.7 456 491 457C518.3 458 545.7 486 573 485.8C600.3 485.7 627.7 457.3 654.8 449.3C682 441.3 709 453.7 736.2 468.3C763.3 483 790.7 500 818 499.2C845.3 498.3 872.7 479.7 886.3 470.3L900 461L900 0L886.3 0C872.7 0 845.3 0 818 0C790.7 0 763.3 0 736.2 0C709 0 682 0 654.8 0C627.7 0 600.3 0 573 0C545.7 0 518.3 0 491 0C463.7 0 436.3 0 409 0C381.7 0 354.3 0 327 0C299.7 0 272.3 0 245.2 0C218 0 191 0 163.8 0C136.7 0 109.3 0 82 0C54.7 0 27.3 0 13.7 0L0 0Z" fill="#000679"></path><path d="M0 437L13.7 433.7C27.3 430.3 54.7 423.7 82 416.8C109.3 410 136.7 403 163.8 408.2C191 413.3 218 430.7 245.2 436.3C272.3 442 299.7 436 327 427.3C354.3 418.7 381.7 407.3 409 403.8C436.3 400.3 463.7 404.7 491 414.5C518.3 424.3 545.7 439.7 573 447.5C600.3 455.3 627.7 455.7 654.8 447C682 438.3 709 420.7 736.2 412.2C763.3 403.7 790.7 404.3 818 415.7C845.3 427 872.7 449 886.3 460L900 471L900 0L886.3 0C872.7 0 845.3 0 818 0C790.7 0 763.3 0 736.2 0C709 0 682 0 654.8 0C627.7 0 600.3 0 573 0C545.7 0 518.3 0 491 0C463.7 0 436.3 0 409 0C381.7 0 354.3 0 327 0C299.7 0 272.3 0 245.2 0C218 0 191 0 163.8 0C136.7 0 109.3 0 82 0C54.7 0 27.3 0 13.7 0L0 0Z" fill="#1c0982"></path><path d="M0 361L13.7 365.3C27.3 369.7 54.7 378.3 82 376.8C109.3 375.3 136.7 363.7 163.8 364.3C191 365 218 378 245.2 377.5C272.3 377 299.7 363 327 366.8C354.3 370.7 381.7 392.3 409 402.7C436.3 413 463.7 412 491 403.3C518.3 394.7 545.7 378.3 573 376C600.3 373.7 627.7 385.3 654.8 387.3C682 389.3 709 381.7 736.2 382C763.3 382.3 790.7 390.7 818 399.7C845.3 408.7 872.7 418.3 886.3 423.2L900 428L900 0L886.3 0C872.7 0 845.3 0 818 0C790.7 0 763.3 0 736.2 0C709 0 682 0 654.8 0C627.7 0 600.3 0 573 0C545.7 0 518.3 0 491 0C463.7 0 436.3 0 409 0C381.7 0 354.3 0 327 0C299.7 0 272.3 0 245.2 0C218 0 191 0 163.8 0C136.7 0 109.3 0 82 0C54.7 0 27.3 0 13.7 0L0 0Z" fill="#2d0c8b"></path><path d="M0 354L13.7 349.2C27.3 344.3 54.7 334.7 82 328.2C109.3 321.7 136.7 318.3 163.8 315.3C191 312.3 218 309.7 245.2 319.3C272.3 329 299.7 351 327 351.5C354.3 352 381.7 331 409 325.7C436.3 320.3 463.7 330.7 491 341.3C518.3 352 545.7 363 573 366.7C600.3 370.3 627.7 366.7 654.8 355.7C682 344.7 709 326.3 736.2 329.3C763.3 332.3 790.7 356.7 818 368.8C845.3 381 872.7 381 886.3 381L900 381L900 0L886.3 0C872.7 0 845.3 0 818 0C790.7 0 763.3 0 736.2 0C709 0 682 0 654.8 0C627.7 0 600.3 0 573 0C545.7 0 518.3 0 491 0C463.7 0 436.3 0 409 0C381.7 0 354.3 0 327 0C299.7 0 272.3 0 245.2 0C218 0 191 0 163.8 0C136.7 0 109.3 0 82 0C54.7 0 27.3 0 13.7 0L0 0Z" fill="#3c1094"></path><path d="M0 297L13.7 301.2C27.3 305.3 54.7 313.7 82 313.2C109.3 312.7 136.7 303.3 163.8 298.3C191 293.3 218 292.7 245.2 297.5C272.3 302.3 299.7 312.7 327 317C354.3 321.3 381.7 319.7 409 318.8C436.3 318 463.7 318 491 312.2C518.3 306.3 545.7 294.7 573 290.2C600.3 285.7 627.7 288.3 654.8 292.7C682 297 709 303 736.2 310.7C763.3 318.3 790.7 327.7 818 321.7C845.3 315.7 872.7 294.3 886.3 283.7L900 273L900 0L886.3 0C872.7 0 845.3 0 818 0C790.7 0 763.3 0 736.2 0C709 0 682 0 654.8 0C627.7 0 600.3 0 573 0C545.7 0 518.3 0 491 0C463.7 0 436.3 0 409 0C381.7 0 354.3 0 327 0C299.7 0 272.3 0 245.2 0C218 0 191 0 163.8 0C136.7 0 109.3 0 82 0C54.7 0 27.3 0 13.7 0L0 0Z" fill="#4a139c"></path><path d="M0 274L13.7 275.5C27.3 277 54.7 280 82 280.8C109.3 281.7 136.7 280.3 163.8 280.8C191 281.3 218 283.7 245.2 285.3C272.3 287 299.7 288 327 282.8C354.3 277.7 381.7 266.3 409 266.7C436.3 267 463.7 279 491 284.8C518.3 290.7 545.7 290.3 573 287.3C600.3 284.3 627.7 278.7 654.8 276.3C682 274 709 275 736.2 275.5C763.3 276 790.7 276 818 277.8C845.3 279.7 872.7 283.3 886.3 285.2L900 287L900 0L886.3 0C872.7 0 845.3 0 818 0C790.7 0 763.3 0 736.2 0C709 0 682 0 654.8 0C627.7 0 600.3 0 573 0C545.7 0 518.3 0 491 0C463.7 0 436.3 0 409 0C381.7 0 354.3 0 327 0C299.7 0 272.3 0 245.2 0C218 0 191 0 163.8 0C136.7 0 109.3 0 82 0C54.7 0 27.3 0 13.7 0L0 0Z" fill="#5817a5"></path><path d="M0 228L13.7 225.8C27.3 223.7 54.7 219.3 82 222C109.3 224.7 136.7 234.3 163.8 233.3C191 232.3 218 220.7 245.2 217.5C272.3 214.3 299.7 219.7 327 217.8C354.3 216 381.7 207 409 202.8C436.3 198.7 463.7 199.3 491 203.3C518.3 207.3 545.7 214.7 573 215C600.3 215.3 627.7 208.7 654.8 206.3C682 204 709 206 736.2 213.5C763.3 221 790.7 234 818 240.5C845.3 247 872.7 247 886.3 247L900 247L900 0L886.3 0C872.7 0 845.3 0 818 0C790.7 0 763.3 0 736.2 0C709 0 682 0 654.8 0C627.7 0 600.3 0 573 0C545.7 0 518.3 0 491 0C463.7 0 436.3 0 409 0C381.7 0 354.3 0 327 0C299.7 0 272.3 0 245.2 0C218 0 191 0 163.8 0C136.7 0 109.3 0 82 0C54.7 0 27.3 0 13.7 0L0 0Z" fill="#661bae"></path><path d="M0 204L13.7 199.5C27.3 195 54.7 186 82 186C109.3 186 136.7 195 163.8 192.3C191 189.7 218 175.3 245.2 170.5C272.3 165.7 299.7 170.3 327 169.7C354.3 169 381.7 163 409 167.2C436.3 171.3 463.7 185.7 491 185.8C518.3 186 545.7 172 573 169.7C600.3 167.3 627.7 176.7 654.8 178.8C682 181 709 176 736.2 174.3C763.3 172.7 790.7 174.3 818 172C845.3 169.7 872.7 163.3 886.3 160.2L900 157L900 0L886.3 0C872.7 0 845.3 0 818 0C790.7 0 763.3 0 736.2 0C709 0 682 0 654.8 0C627.7 0 600.3 0 573 0C545.7 0 518.3 0 491 0C463.7 0 436.3 0 409 0C381.7 0 354.3 0 327 0C299.7 0 272.3 0 245.2 0C218 0 191 0 163.8 0C136.7 0 109.3 0 82 0C54.7 0 27.3 0 13.7 0L0 0Z" fill="#731fb6"></path><path d="M0 111L13.7 116.7C27.3 122.3 54.7 133.7 82 138.7C109.3 143.7 136.7 142.3 163.8 137.5C191 132.7 218 124.3 245.2 120C272.3 115.7 299.7 115.3 327 120.7C354.3 126 381.7 137 409 139.2C436.3 141.3 463.7 134.7 491 130.2C518.3 125.7 545.7 123.3 573 121.2C600.3 119 627.7 117 654.8 116.5C682 116 709 117 736.2 116.8C763.3 116.7 790.7 115.3 818 119.2C845.3 123 872.7 132 886.3 136.5L900 141L900 0L886.3 0C872.7 0 845.3 0 818 0C790.7 0 763.3 0 736.2 0C709 0 682 0 654.8 0C627.7 0 600.3 0 573 0C545.7 0 518.3 0 491 0C463.7 0 436.3 0 409 0C381.7 0 354.3 0 327 0C299.7 0 272.3 0 245.2 0C218 0 191 0 163.8 0C136.7 0 109.3 0 82 0C54.7 0 27.3 0 13.7 0L0 0Z" fill="#8122bf"></path><path d="M0 106L13.7 105.7C27.3 105.3 54.7 104.7 82 105C109.3 105.3 136.7 106.7 163.8 107.8C191 109 218 110 245.2 104.5C272.3 99 299.7 87 327 81.3C354.3 75.7 381.7 76.3 409 78.7C436.3 81 463.7 85 491 86.3C518.3 87.7 545.7 86.3 573 84C600.3 81.7 627.7 78.3 654.8 79.3C682 80.3 709 85.7 736.2 89.2C763.3 92.7 790.7 94.3 818 93.8C845.3 93.3 872.7 90.7 886.3 89.3L900 88L900 0L886.3 0C872.7 0 845.3 0 818 0C790.7 0 763.3 0 736.2 0C709 0 682 0 654.8 0C627.7 0 600.3 0 573 0C545.7 0 518.3 0 491 0C463.7 0 436.3 0 409 0C381.7 0 354.3 0 327 0C299.7 0 272.3 0 245.2 0C218 0 191 0 163.8 0C136.7 0 109.3 0 82 0C54.7 0 27.3 0 13.7 0L0 0Z" fill="#8e26c8"></path><path d="M0 52L13.7 51.5C27.3 51 54.7 50 82 49C109.3 48 136.7 47 163.8 45.5C191 44 218 42 245.2 40.2C272.3 38.3 299.7 36.7 327 39.7C354.3 42.7 381.7 50.3 409 51.2C436.3 52 463.7 46 491 41.5C518.3 37 545.7 34 573 32.8C600.3 31.7 627.7 32.3 654.8 35.2C682 38 709 43 736.2 47.5C763.3 52 790.7 56 818 53.7C845.3 51.3 872.7 42.7 886.3 38.3L900 34L900 0L886.3 0C872.7 0 845.3 0 818 0C790.7 0 763.3 0 736.2 0C709 0 682 0 654.8 0C627.7 0 600.3 0 573 0C545.7 0 518.3 0 491 0C463.7 0 436.3 0 409 0C381.7 0 354.3 0 327 0C299.7 0 272.3 0 245.2 0C218 0 191 0 163.8 0C136.7 0 109.3 0 82 0C54.7 0 27.3 0 13.7 0L0 0Z" fill="#9c2ad0"></path></svg>