<svg id="visual" viewBox="0 0 900 600" width="900" height="600" xmlns="http://www.w3.org/2000/svg" xmlns:xlink="http://www.w3.org/1999/xlink" version="1.1"><rect x="0" y="0" width="900" height="600" fill="#ccc"></rect><path d="M0 491L18.8 478.2C37.7 465.3 75.3 439.7 112.8 437C150.3 434.3 187.7 454.7 225.2 467.7C262.7 480.7 300.3 486.3 337.8 479.8C375.3 473.3 412.7 454.7 450.2 456.5C487.7 458.3 525.3 480.7 562.8 491.8C600.3 503 637.7 503 675.2 502.8C712.7 502.7 750.3 502.3 787.8 493.3C825.3 484.3 862.7 466.7 881.3 457.8L900 449L900 0L881.3 0C862.7 0 825.3 0 787.8 0C750.3 0 712.7 0 675.2 0C637.7 0 600.3 0 562.8 0C525.3 0 487.7 0 450.2 0C412.7 0 375.3 0 337.8 0C300.3 0 262.7 0 225.2 0C187.7 0 150.3 0 112.8 0C75.3 0 37.7 0 18.8 0L0 0Z" fill="#000679"></path><path d="M0 453L18.8 449.5C37.7 446 75.3 439 112.8 434.3C150.3 429.7 187.7 427.3 225.2 420C262.7 412.7 300.3 400.3 337.8 403.3C375.3 406.3 412.7 424.7 450.2 425.8C487.7 427 525.3 411 562.8 407C600.3 403 637.7 411 675.2 409C712.7 407 750.3 395 787.8 391.8C825.3 388.7 862.7 394.3 881.3 397.2L900 400L900 0L881.3 0C862.7 0 825.3 0 787.8 0C750.3 0 712.7 0 675.2 0C637.7 0 600.3 0 562.8 0C525.3 0 487.7 0 450.2 0C412.7 0 375.3 0 337.8 0C300.3 0 262.7 0 225.2 0C187.7 0 150.3 0 112.8 0C75.3 0 37.7 0 18.8 0L0 0Z" fill="#210984"></path><path d="M0 351L18.8 360.2C37.7 369.3 75.3 387.7 112.8 383.7C150.3 379.7 187.7 353.3 225.2 352.8C262.7 352.3 300.3 377.7 337.8 389.2C375.3 400.7 412.7 398.3 450.2 394.8C487.7 391.3 525.3 386.7 562.8 382.5C600.3 378.3 637.7 374.7 675.2 374.5C712.7 374.3 750.3 377.7 787.8 371C825.3 364.3 862.7 347.7 881.3 339.3L900 331L900 0L881.3 0C862.7 0 825.3 0 787.8 0C750.3 0 712.7 0 675.2 0C637.7 0 600.3 0 562.8 0C525.3 0 487.7 0 450.2 0C412.7 0 375.3 0 337.8 0C300.3 0 262.7 0 225.2 0C187.7 0 150.3 0 112.8 0C75.3 0 37.7 0 18.8 0L0 0Z" fill="#350e8f"></path><path d="M0 294L18.8 294.2C37.7 294.3 75.3 294.7 112.8 302.8C150.3 311 187.7 327 225.2 329.7C262.7 332.3 300.3 321.7 337.8 312.5C375.3 303.3 412.7 295.7 450.2 295.7C487.7 295.7 525.3 303.3 562.8 309.8C600.3 316.3 637.7 321.7 675.2 321.2C712.7 320.7 750.3 314.3 787.8 309.3C825.3 304.3 862.7 300.7 881.3 298.8L900 297L900 0L881.3 0C862.7 0 825.3 0 787.8 0C750.3 0 712.7 0 675.2 0C637.7 0 600.3 0 562.8 0C525.3 0 487.7 0 450.2 0C412.7 0 375.3 0 337.8 0C300.3 0 262.7 0 225.2 0C187.7 0 150.3 0 112.8 0C75.3 0 37.7 0 18.8 0L0 0Z" fill="#47129a"></path><path d="M0 254L18.8 255.7C37.7 257.3 75.3 260.7 112.8 258.5C150.3 256.3 187.7 248.7 225.2 254.2C262.7 259.7 300.3 278.3 337.8 276.3C375.3 274.3 412.7 251.7 450.2 239.8C487.7 228 525.3 227 562.8 230.7C600.3 234.3 637.7 242.7 675.2 252C712.7 261.3 750.3 271.7 787.8 267.5C825.3 263.3 862.7 244.7 881.3 235.3L900 226L900 0L881.3 0C862.7 0 825.3 0 787.8 0C750.3 0 712.7 0 675.2 0C637.7 0 600.3 0 562.8 0C525.3 0 487.7 0 450.2 0C412.7 0 375.3 0 337.8 0C300.3 0 262.7 0 225.2 0C187.7 0 150.3 0 112.8 0C75.3 0 37.7 0 18.8 0L0 0Z" fill="#5817a5"></path><path d="M0 179L18.8 179.7C37.7 180.3 75.3 181.7 112.8 181.8C150.3 182 187.7 181 225.2 189.8C262.7 198.7 300.3 217.3 337.8 222C375.3 226.7 412.7 217.3 450.2 216.7C487.7 216 525.3 224 562.8 228C600.3 232 637.7 232 675.2 230C712.7 228 750.3 224 787.8 223.3C825.3 222.7 862.7 225.3 881.3 226.7L900 228L900 0L881.3 0C862.7 0 825.3 0 787.8 0C750.3 0 712.7 0 675.2 0C637.7 0 600.3 0 562.8 0C525.3 0 487.7 0 450.2 0C412.7 0 375.3 0 337.8 0C300.3 0 262.7 0 225.2 0C187.7 0 150.3 0 112.8 0C75.3 0 37.7 0 18.8 0L0 0Z" fill="#691cb0"></path><path d="M0 170L18.8 168.5C37.7 167 75.3 164 112.8 158C150.3 152 187.7 143 225.2 140.2C262.7 137.3 300.3 140.7 337.8 145.7C375.3 150.7 412.7 157.3 450.2 157.8C487.7 158.3 525.3 152.7 562.8 154.8C600.3 157 637.7 167 675.2 164.8C712.7 162.7 750.3 148.3 787.8 150C825.3 151.7 862.7 169.3 881.3 178.2L900 187L900 0L881.3 0C862.7 0 825.3 0 787.8 0C750.3 0 712.7 0 675.2 0C637.7 0 600.3 0 562.8 0C525.3 0 487.7 0 450.2 0C412.7 0 375.3 0 337.8 0C300.3 0 262.7 0 225.2 0C187.7 0 150.3 0 112.8 0C75.3 0 37.7 0 18.8 0L0 0Z" fill="#7a20bb"></path><path d="M0 129L18.8 123.2C37.7 117.3 75.3 105.7 112.8 106.3C150.3 107 187.7 120 225.2 119C262.7 118 300.3 103 337.8 94.8C375.3 86.7 412.7 85.3 450.2 93.5C487.7 101.7 525.3 119.3 562.8 124.3C600.3 129.3 637.7 121.7 675.2 114.8C712.7 108 750.3 102 787.8 102.3C825.3 102.7 862.7 109.3 881.3 112.7L900 116L900 0L881.3 0C862.7 0 825.3 0 787.8 0C750.3 0 712.7 0 675.2 0C637.7 0 600.3 0 562.8 0C525.3 0 487.7 0 450.2 0C412.7 0 375.3 0 337.8 0C300.3 0 262.7 0 225.2 0C187.7 0 150.3 0 112.8 0C75.3 0 37.7 0 18.8 0L0 0Z" fill="#8b25c5"></path><path d="M0 37L18.8 37.3C37.7 37.7 75.3 38.3 112.8 39C150.3 39.7 187.7 40.3 225.2 43.2C262.7 46 300.3 51 337.8 54.7C375.3 58.3 412.7 60.7 450.2 64.5C487.7 68.3 525.3 73.7 562.8 74.5C600.3 75.3 637.7 71.7 675.2 65.5C712.7 59.3 750.3 50.7 787.8 50C825.3 49.3 862.7 56.7 881.3 60.3L900 64L900 0L881.3 0C862.7 0 825.3 0 787.8 0C750.3 0 712.7 0 675.2 0C637.7 0 600.3 0 562.8 0C525.3 0 487.7 0 450.2 0C412.7 0 375.3 0 337.8 0C300.3 0 262.7 0 225.2 0C187.7 0 150.3 0 112.8 0C75.3 0 37.7 0 18.8 0L0 0Z" fill="#9c2ad0"></path></svg>