<svg id="visual" viewBox="0 0 900 600" width="900" height="600" xmlns="http://www.w3.org/2000/svg" xmlns:xlink="http://www.w3.org/1999/xlink" version="1.1"><path d="M0 13L13.7 14C27.3 15 54.7 17 82 20C109.3 23 136.7 27 163.8 29C191 31 218 31 245.2 27C272.3 23 299.7 15 327 17C354.3 19 381.7 31 409 31C436.3 31 463.7 19 491 18C518.3 17 545.7 27 573 31C600.3 35 627.7 33 654.8 34C682 35 709 39 736.2 41C763.3 43 790.7 43 818 43C845.3 43 872.7 43 886.3 43L900 43L900 0L886.3 0C872.7 0 845.3 0 818 0C790.7 0 763.3 0 736.2 0C709 0 682 0 654.8 0C627.7 0 600.3 0 573 0C545.7 0 518.3 0 491 0C463.7 0 436.3 0 409 0C381.7 0 354.3 0 327 0C299.7 0 272.3 0 245.2 0C218 0 191 0 163.8 0C136.7 0 109.3 0 82 0C54.7 0 27.3 0 13.7 0L0 0Z" fill="#000679"></path><path d="M0 25L13.7 29C27.3 33 54.7 41 82 55C109.3 69 136.7 89 163.8 99C191 109 218 109 245.2 99C272.3 89 299.7 69 327 63C354.3 57 381.7 65 409 70C436.3 75 463.7 77 491 81C518.3 85 545.7 91 573 96C600.3 101 627.7 105 654.8 105C682 105 709 101 736.2 92C763.3 83 790.7 69 818 64C845.3 59 872.7 63 886.3 65L900 67L900 41L886.3 41C872.7 41 845.3 41 818 41C790.7 41 763.3 41 736.2 39C709 37 682 33 654.8 32C627.7 31 600.3 33 573 29C545.7 25 518.3 15 491 16C463.7 17 436.3 29 409 29C381.7 29 354.3 17 327 15C299.7 13 272.3 21 245.2 25C218 29 191 29 163.8 27C136.7 25 109.3 21 82 18C54.7 15 27.3 13 13.7 12L0 11Z" fill="#181393"></path><path d="M0 103L13.7 109C27.3 115 54.7 127 82 142C109.3 157 136.7 175 163.8 181C191 187 218 181 245.2 178C272.3 175 299.7 175 327 171C354.3 167 381.7 159 409 159C436.3 159 463.7 167 491 173C518.3 179 545.7 183 573 193C600.3 203 627.7 219 654.8 223C682 227 709 219 736.2 221C763.3 223 790.7 235 818 243C845.3 251 872.7 255 886.3 257L900 259L900 65L886.3 63C872.7 61 845.3 57 818 62C790.7 67 763.3 81 736.2 90C709 99 682 103 654.8 103C627.7 103 600.3 99 573 94C545.7 89 518.3 83 491 79C463.7 75 436.3 73 409 68C381.7 63 354.3 55 327 61C299.7 67 272.3 87 245.2 97C218 107 191 107 163.8 97C136.7 87 109.3 67 82 53C54.7 39 27.3 31 13.7 27L0 23Z" fill="#2a1fae"></path><path d="M0 145L13.7 151C27.3 157 54.7 169 82 184C109.3 199 136.7 217 163.8 219C191 221 218 207 245.2 204C272.3 201 299.7 209 327 210C354.3 211 381.7 205 409 201C436.3 197 463.7 195 491 198C518.3 201 545.7 209 573 217C600.3 225 627.7 233 654.8 233C682 233 709 225 736.2 230C763.3 235 790.7 253 818 267C845.3 281 872.7 291 886.3 296L900 301L900 257L886.3 255C872.7 253 845.3 249 818 241C790.7 233 763.3 221 736.2 219C709 217 682 225 654.8 221C627.7 217 600.3 201 573 191C545.7 181 518.3 177 491 171C463.7 165 436.3 157 409 157C381.7 157 354.3 165 327 169C299.7 173 272.3 173 245.2 176C218 179 191 185 163.8 179C136.7 173 109.3 155 82 140C54.7 125 27.3 113 13.7 107L0 101Z" fill="#3a2cc9"></path><path d="M0 247L13.7 247C27.3 247 54.7 247 82 247C109.3 247 136.7 247 163.8 246C191 245 218 243 245.2 253C272.3 263 299.7 285 327 288C354.3 291 381.7 275 409 269C436.3 263 463.7 267 491 263C518.3 259 545.7 247 573 247C600.3 247 627.7 259 654.8 260C682 261 709 251 736.2 263C763.3 275 790.7 309 818 334C845.3 359 872.7 375 886.3 383L900 391L900 299L886.3 294C872.7 289 845.3 279 818 265C790.7 251 763.3 233 736.2 228C709 223 682 231 654.8 231C627.7 231 600.3 223 573 215C545.7 207 518.3 199 491 196C463.7 193 436.3 195 409 199C381.7 203 354.3 209 327 208C299.7 207 272.3 199 245.2 202C218 205 191 219 163.8 217C136.7 215 109.3 197 82 182C54.7 167 27.3 155 13.7 149L0 143Z" fill="#4a3ae6"></path><path d="M0 277L13.7 278C27.3 279 54.7 281 82 281C109.3 281 136.7 279 163.8 278C191 277 218 277 245.2 283C272.3 289 299.7 301 327 301C354.3 301 381.7 289 409 288C436.3 287 463.7 297 491 293C518.3 289 545.7 271 573 267C600.3 263 627.7 273 654.8 274C682 275 709 267 736.2 282C763.3 297 790.7 335 818 358C845.3 381 872.7 389 886.3 393L900 397L900 389L886.3 381C872.7 373 845.3 357 818 332C790.7 307 763.3 273 736.2 261C709 249 682 259 654.8 258C627.7 257 600.3 245 573 245C545.7 245 518.3 257 491 261C463.7 265 436.3 261 409 267C381.7 273 354.3 289 327 286C299.7 283 272.3 261 245.2 251C218 241 191 243 163.8 244C136.7 245 109.3 245 82 245C54.7 245 27.3 245 13.7 245L0 245Z" fill="#503ff2"></path><path d="M0 295L13.7 295C27.3 295 54.7 295 82 295C109.3 295 136.7 295 163.8 296C191 297 218 299 245.2 313C272.3 327 299.7 353 327 359C354.3 365 381.7 351 409 347C436.3 343 463.7 349 491 340C518.3 331 545.7 307 573 300C600.3 293 627.7 303 654.8 304C682 305 709 297 736.2 315C763.3 333 790.7 377 818 401C845.3 425 872.7 429 886.3 431L900 433L900 395L886.3 391C872.7 387 845.3 379 818 356C790.7 333 763.3 295 736.2 280C709 265 682 273 654.8 272C627.7 271 600.3 261 573 265C545.7 269 518.3 287 491 291C463.7 295 436.3 285 409 286C381.7 287 354.3 299 327 299C299.7 299 272.3 287 245.2 281C218 275 191 275 163.8 276C136.7 277 109.3 279 82 279C54.7 279 27.3 277 13.7 276L0 275Z" fill="#503ff2"></path><path d="M0 391L13.7 381C27.3 371 54.7 351 82 338C109.3 325 136.7 319 163.8 318C191 317 218 321 245.2 343C272.3 365 299.7 405 327 420C354.3 435 381.7 425 409 417C436.3 409 463.7 403 491 390C518.3 377 545.7 357 573 363C600.3 369 627.7 401 654.8 401C682 401 709 369 736.2 375C763.3 381 790.7 425 818 451C845.3 477 872.7 485 886.3 489L900 493L900 431L886.3 429C872.7 427 845.3 423 818 399C790.7 375 763.3 331 736.2 313C709 295 682 303 654.8 302C627.7 301 600.3 291 573 298C545.7 305 518.3 329 491 338C463.7 347 436.3 341 409 345C381.7 349 354.3 363 327 357C299.7 351 272.3 325 245.2 311C218 297 191 295 163.8 294C136.7 293 109.3 293 82 293C54.7 293 27.3 293 13.7 293L0 293Z" fill="#4a3ae6"></path><path d="M0 433L13.7 420C27.3 407 54.7 381 82 365C109.3 349 136.7 343 163.8 339C191 335 218 333 245.2 353C272.3 373 299.7 415 327 431C354.3 447 381.7 437 409 431C436.3 425 463.7 423 491 412C518.3 401 545.7 381 573 386C600.3 391 627.7 421 654.8 422C682 423 709 395 736.2 401C763.3 407 790.7 447 818 473C845.3 499 872.7 511 886.3 517L900 523L900 491L886.3 487C872.7 483 845.3 475 818 449C790.7 423 763.3 379 736.2 373C709 367 682 399 654.8 399C627.7 399 600.3 367 573 361C545.7 355 518.3 375 491 388C463.7 401 436.3 407 409 415C381.7 423 354.3 433 327 418C299.7 403 272.3 363 245.2 341C218 319 191 315 163.8 316C136.7 317 109.3 323 82 336C54.7 349 27.3 369 13.7 379L0 389Z" fill="#3a2cc9"></path><path d="M0 541L13.7 538C27.3 535 54.7 529 82 530C109.3 531 136.7 539 163.8 544C191 549 218 551 245.2 547C272.3 543 299.7 533 327 534C354.3 535 381.7 547 409 551C436.3 555 463.7 551 491 547C518.3 543 545.7 539 573 536C600.3 533 627.7 531 654.8 534C682 537 709 545 736.2 551C763.3 557 790.7 561 818 564C845.3 567 872.7 569 886.3 570L900 571L900 521L886.3 515C872.7 509 845.3 497 818 471C790.7 445 763.3 405 736.2 399C709 393 682 421 654.8 420C627.7 419 600.3 389 573 384C545.7 379 518.3 399 491 410C463.7 421 436.3 423 409 429C381.7 435 354.3 445 327 429C299.7 413 272.3 371 245.2 351C218 331 191 333 163.8 337C136.7 341 109.3 347 82 363C54.7 379 27.3 405 13.7 418L0 431Z" fill="#2a1fae"></path><path d="M0 565L13.7 563C27.3 561 54.7 557 82 562C109.3 567 136.7 581 163.8 587C191 593 218 591 245.2 589C272.3 587 299.7 585 327 581C354.3 577 381.7 571 409 566C436.3 561 463.7 557 491 558C518.3 559 545.7 565 573 566C600.3 567 627.7 563 654.8 563C682 563 709 567 736.2 569C763.3 571 790.7 571 818 572C845.3 573 872.7 575 886.3 576L900 577L900 569L886.3 568C872.7 567 845.3 565 818 562C790.7 559 763.3 555 736.2 549C709 543 682 535 654.8 532C627.7 529 600.3 531 573 534C545.7 537 518.3 541 491 545C463.7 549 436.3 553 409 549C381.7 545 354.3 533 327 532C299.7 531 272.3 541 245.2 545C218 549 191 547 163.8 542C136.7 537 109.3 529 82 528C54.7 527 27.3 533 13.7 536L0 539Z" fill="#181393"></path><path d="M0 601L13.7 601C27.3 601 54.7 601 82 601C109.3 601 136.7 601 163.8 601C191 601 218 601 245.2 601C272.3 601 299.7 601 327 601C354.3 601 381.7 601 409 601C436.3 601 463.7 601 491 601C518.3 601 545.7 601 573 601C600.3 601 627.7 601 654.8 601C682 601 709 601 736.2 601C763.3 601 790.7 601 818 601C845.3 601 872.7 601 886.3 601L900 601L900 575L886.3 574C872.7 573 845.3 571 818 570C790.7 569 763.3 569 736.2 567C709 565 682 561 654.8 561C627.7 561 600.3 565 573 564C545.7 563 518.3 557 491 556C463.7 555 436.3 559 409 564C381.7 569 354.3 575 327 579C299.7 583 272.3 585 245.2 587C218 589 191 591 163.8 585C136.7 579 109.3 565 82 560C54.7 555 27.3 559 13.7 561L0 563Z" fill="#000679"></path></svg>