<svg id="visual" viewBox="0 0 900 600" width="900" height="600" xmlns="http://www.w3.org/2000/svg" xmlns:xlink="http://www.w3.org/1999/xlink" version="1.1"><path d="M0 31L13.7 33C27.3 35 54.7 39 82 35C109.3 31 136.7 19 163.8 19C191 19 218 31 245.2 35C272.3 39 299.7 35 327 36C354.3 37 381.7 43 409 47C436.3 51 463.7 53 491 50C518.3 47 545.7 39 573 35C600.3 31 627.7 31 654.8 29C682 27 709 23 736.2 19C763.3 15 790.7 11 818 17C845.3 23 872.7 39 886.3 47L900 55L900 0L886.3 0C872.7 0 845.3 0 818 0C790.7 0 763.3 0 736.2 0C709 0 682 0 654.8 0C627.7 0 600.3 0 573 0C545.7 0 518.3 0 491 0C463.7 0 436.3 0 409 0C381.7 0 354.3 0 327 0C299.7 0 272.3 0 245.2 0C218 0 191 0 163.8 0C136.7 0 109.3 0 82 0C54.7 0 27.3 0 13.7 0L0 0Z" fill="#000679"></path><path d="M0 37L13.7 43C27.3 49 54.7 61 82 61C109.3 61 136.7 49 163.8 51C191 53 218 69 245.2 75C272.3 81 299.7 77 327 74C354.3 71 381.7 69 409 70C436.3 71 463.7 75 491 73C518.3 71 545.7 63 573 58C600.3 53 627.7 51 654.8 48C682 45 709 41 736.2 40C763.3 39 790.7 41 818 51C845.3 61 872.7 79 886.3 88L900 97L900 53L886.3 45C872.7 37 845.3 21 818 15C790.7 9 763.3 13 736.2 17C709 21 682 25 654.8 27C627.7 29 600.3 29 573 33C545.7 37 518.3 45 491 48C463.7 51 436.3 49 409 45C381.7 41 354.3 35 327 34C299.7 33 272.3 37 245.2 33C218 29 191 17 163.8 17C136.7 17 109.3 29 82 33C54.7 37 27.3 33 13.7 31L0 29Z" fill="#181393"></path><path d="M0 55L13.7 61C27.3 67 54.7 79 82 81C109.3 83 136.7 75 163.8 80C191 85 218 103 245.2 105C272.3 107 299.7 93 327 88C354.3 83 381.7 87 409 93C436.3 99 463.7 107 491 106C518.3 105 545.7 95 573 90C600.3 85 627.7 85 654.8 84C682 83 709 81 736.2 81C763.3 81 790.7 83 818 91C845.3 99 872.7 113 886.3 120L900 127L900 95L886.3 86C872.7 77 845.3 59 818 49C790.7 39 763.3 37 736.2 38C709 39 682 43 654.8 46C627.7 49 600.3 51 573 56C545.7 61 518.3 69 491 71C463.7 73 436.3 69 409 68C381.7 67 354.3 69 327 72C299.7 75 272.3 79 245.2 73C218 67 191 51 163.8 49C136.7 47 109.3 59 82 59C54.7 59 27.3 47 13.7 41L0 35Z" fill="#2a1fae"></path><path d="M0 73L13.7 77C27.3 81 54.7 89 82 92C109.3 95 136.7 93 163.8 98C191 103 218 115 245.2 119C272.3 123 299.7 119 327 118C354.3 117 381.7 119 409 127C436.3 135 463.7 149 491 147C518.3 145 545.7 127 573 115C600.3 103 627.7 97 654.8 99C682 101 709 111 736.2 113C763.3 115 790.7 109 818 115C845.3 121 872.7 139 886.3 148L900 157L900 125L886.3 118C872.7 111 845.3 97 818 89C790.7 81 763.3 79 736.2 79C709 79 682 81 654.8 82C627.7 83 600.3 83 573 88C545.7 93 518.3 103 491 104C463.7 105 436.3 97 409 91C381.7 85 354.3 81 327 86C299.7 91 272.3 105 245.2 103C218 101 191 83 163.8 78C136.7 73 109.3 81 82 79C54.7 77 27.3 65 13.7 59L0 53Z" fill="#3a2cc9"></path><path d="M0 97L13.7 101C27.3 105 54.7 113 82 123C109.3 133 136.7 145 163.8 150C191 155 218 153 245.2 153C272.3 153 299.7 155 327 154C354.3 153 381.7 149 409 155C436.3 161 463.7 177 491 175C518.3 173 545.7 153 573 146C600.3 139 627.7 145 654.8 147C682 149 709 147 736.2 143C763.3 139 790.7 133 818 140C845.3 147 872.7 167 886.3 177L900 187L900 155L886.3 146C872.7 137 845.3 119 818 113C790.7 107 763.3 113 736.2 111C709 109 682 99 654.8 97C627.7 95 600.3 101 573 113C545.7 125 518.3 143 491 145C463.7 147 436.3 133 409 125C381.7 117 354.3 115 327 116C299.7 117 272.3 121 245.2 117C218 113 191 101 163.8 96C136.7 91 109.3 93 82 90C54.7 87 27.3 79 13.7 75L0 71Z" fill="#4a3ae6"></path><path d="M0 121L13.7 123C27.3 125 54.7 129 82 144C109.3 159 136.7 185 163.8 194C191 203 218 195 245.2 195C272.3 195 299.7 203 327 199C354.3 195 381.7 179 409 180C436.3 181 463.7 199 491 202C518.3 205 545.7 193 573 189C600.3 185 627.7 189 654.8 192C682 195 709 197 736.2 188C763.3 179 790.7 159 818 159C845.3 159 872.7 179 886.3 189L900 199L900 185L886.3 175C872.7 165 845.3 145 818 138C790.7 131 763.3 137 736.2 141C709 145 682 147 654.8 145C627.7 143 600.3 137 573 144C545.7 151 518.3 171 491 173C463.7 175 436.3 159 409 153C381.7 147 354.3 151 327 152C299.7 153 272.3 151 245.2 151C218 151 191 153 163.8 148C136.7 143 109.3 131 82 121C54.7 111 27.3 103 13.7 99L0 95Z" fill="#503ff2"></path><path d="M0 205L13.7 201C27.3 197 54.7 189 82 192C109.3 195 136.7 209 163.8 213C191 217 218 211 245.2 216C272.3 221 299.7 237 327 242C354.3 247 381.7 241 409 243C436.3 245 463.7 255 491 254C518.3 253 545.7 241 573 243C600.3 245 627.7 261 654.8 269C682 277 709 277 736.2 265C763.3 253 790.7 229 818 231C845.3 233 872.7 261 886.3 275L900 289L900 197L886.3 187C872.7 177 845.3 157 818 157C790.7 157 763.3 177 736.2 186C709 195 682 193 654.8 190C627.7 187 600.3 183 573 187C545.7 191 518.3 203 491 200C463.7 197 436.3 179 409 178C381.7 177 354.3 193 327 197C299.7 201 272.3 193 245.2 193C218 193 191 201 163.8 192C136.7 183 109.3 157 82 142C54.7 127 27.3 123 13.7 121L0 119Z" fill="#503ff2"></path><path d="M0 253L13.7 248C27.3 243 54.7 233 82 245C109.3 257 136.7 291 163.8 299C191 307 218 289 245.2 290C272.3 291 299.7 311 327 324C354.3 337 381.7 343 409 342C436.3 341 463.7 333 491 320C518.3 307 545.7 289 573 295C600.3 301 627.7 331 654.8 338C682 345 709 329 736.2 322C763.3 315 790.7 317 818 320C845.3 323 872.7 327 886.3 329L900 331L900 287L886.3 273C872.7 259 845.3 231 818 229C790.7 227 763.3 251 736.2 263C709 275 682 275 654.8 267C627.7 259 600.3 243 573 241C545.7 239 518.3 251 491 252C463.7 253 436.3 243 409 241C381.7 239 354.3 245 327 240C299.7 235 272.3 219 245.2 214C218 209 191 215 163.8 211C136.7 207 109.3 193 82 190C54.7 187 27.3 195 13.7 199L0 203Z" fill="#4a3ae6"></path><path d="M0 325L13.7 320C27.3 315 54.7 305 82 334C109.3 363 136.7 431 163.8 453C191 475 218 451 245.2 435C272.3 419 299.7 411 327 427C354.3 443 381.7 483 409 490C436.3 497 463.7 471 491 468C518.3 465 545.7 485 573 486C600.3 487 627.7 469 654.8 460C682 451 709 451 736.2 458C763.3 465 790.7 479 818 467C845.3 455 872.7 417 886.3 398L900 379L900 329L886.3 327C872.7 325 845.3 321 818 318C790.7 315 763.3 313 736.2 320C709 327 682 343 654.8 336C627.7 329 600.3 299 573 293C545.7 287 518.3 305 491 318C463.7 331 436.3 339 409 340C381.7 341 354.3 335 327 322C299.7 309 272.3 289 245.2 288C218 287 191 305 163.8 297C136.7 289 109.3 255 82 243C54.7 231 27.3 241 13.7 246L0 251Z" fill="#3a2cc9"></path><path d="M0 559L13.7 553C27.3 547 54.7 535 82 534C109.3 533 136.7 543 163.8 549C191 555 218 557 245.2 555C272.3 553 299.7 547 327 545C354.3 543 381.7 545 409 544C436.3 543 463.7 539 491 538C518.3 537 545.7 539 573 542C600.3 545 627.7 549 654.8 547C682 545 709 537 736.2 539C763.3 541 790.7 553 818 557C845.3 561 872.7 557 886.3 555L900 553L900 377L886.3 396C872.7 415 845.3 453 818 465C790.7 477 763.3 463 736.2 456C709 449 682 449 654.8 458C627.7 467 600.3 485 573 484C545.7 483 518.3 463 491 466C463.7 469 436.3 495 409 488C381.7 481 354.3 441 327 425C299.7 409 272.3 417 245.2 433C218 449 191 473 163.8 451C136.7 429 109.3 361 82 332C54.7 303 27.3 313 13.7 318L0 323Z" fill="#2a1fae"></path><path d="M0 589L13.7 584C27.3 579 54.7 569 82 564C109.3 559 136.7 559 163.8 565C191 571 218 583 245.2 584C272.3 585 299.7 575 327 569C354.3 563 381.7 561 409 559C436.3 557 463.7 555 491 555C518.3 555 545.7 557 573 563C600.3 569 627.7 579 654.8 579C682 579 709 569 736.2 570C763.3 571 790.7 583 818 586C845.3 589 872.7 583 886.3 580L900 577L900 551L886.3 553C872.7 555 845.3 559 818 555C790.7 551 763.3 539 736.2 537C709 535 682 543 654.8 545C627.7 547 600.3 543 573 540C545.7 537 518.3 535 491 536C463.7 537 436.3 541 409 542C381.7 543 354.3 541 327 543C299.7 545 272.3 551 245.2 553C218 555 191 553 163.8 547C136.7 541 109.3 531 82 532C54.7 533 27.3 545 13.7 551L0 557Z" fill="#181393"></path><path d="M0 601L13.7 601C27.3 601 54.7 601 82 601C109.3 601 136.7 601 163.8 601C191 601 218 601 245.2 601C272.3 601 299.7 601 327 601C354.3 601 381.7 601 409 601C436.3 601 463.7 601 491 601C518.3 601 545.7 601 573 601C600.3 601 627.7 601 654.8 601C682 601 709 601 736.2 601C763.3 601 790.7 601 818 601C845.3 601 872.7 601 886.3 601L900 601L900 575L886.3 578C872.7 581 845.3 587 818 584C790.7 581 763.3 569 736.2 568C709 567 682 577 654.8 577C627.7 577 600.3 567 573 561C545.7 555 518.3 553 491 553C463.7 553 436.3 555 409 557C381.7 559 354.3 561 327 567C299.7 573 272.3 583 245.2 582C218 581 191 569 163.8 563C136.7 557 109.3 557 82 562C54.7 567 27.3 577 13.7 582L0 587Z" fill="#000679"></path></svg>