<svg id="visual" viewBox="0 0 900 600" width="900" height="600" xmlns="http://www.w3.org/2000/svg" xmlns:xlink="http://www.w3.org/1999/xlink" version="1.1"><path d="M0 31L13.7 39C27.3 47 54.7 63 82 64C109.3 65 136.7 51 163.8 53C191 55 218 73 245.2 78C272.3 83 299.7 75 327 65C354.3 55 381.7 43 409 38C436.3 33 463.7 35 491 37C518.3 39 545.7 41 573 39C600.3 37 627.7 31 654.8 38C682 45 709 65 736.2 66C763.3 67 790.7 49 818 44C845.3 39 872.7 47 886.3 51L900 55L900 0L886.3 0C872.7 0 845.3 0 818 0C790.7 0 763.3 0 736.2 0C709 0 682 0 654.8 0C627.7 0 600.3 0 573 0C545.7 0 518.3 0 491 0C463.7 0 436.3 0 409 0C381.7 0 354.3 0 327 0C299.7 0 272.3 0 245.2 0C218 0 191 0 163.8 0C136.7 0 109.3 0 82 0C54.7 0 27.3 0 13.7 0L0 0Z" fill="#000679"></path><path d="M0 73L13.7 80C27.3 87 54.7 101 82 97C109.3 93 136.7 71 163.8 71C191 71 218 93 245.2 100C272.3 107 299.7 99 327 86C354.3 73 381.7 55 409 47C436.3 39 463.7 41 491 49C518.3 57 545.7 71 573 73C600.3 75 627.7 65 654.8 67C682 69 709 83 736.2 81C763.3 79 790.7 61 818 56C845.3 51 872.7 59 886.3 63L900 67L900 53L886.3 49C872.7 45 845.3 37 818 42C790.7 47 763.3 65 736.2 64C709 63 682 43 654.8 36C627.7 29 600.3 35 573 37C545.7 39 518.3 37 491 35C463.7 33 436.3 31 409 36C381.7 41 354.3 53 327 63C299.7 73 272.3 81 245.2 76C218 71 191 53 163.8 51C136.7 49 109.3 63 82 62C54.7 61 27.3 45 13.7 37L0 29Z" fill="#181393"></path><path d="M0 109L13.7 111C27.3 113 54.7 117 82 111C109.3 105 136.7 89 163.8 90C191 91 218 109 245.2 114C272.3 119 299.7 111 327 99C354.3 87 381.7 71 409 63C436.3 55 463.7 55 491 64C518.3 73 545.7 91 573 94C600.3 97 627.7 85 654.8 85C682 85 709 97 736.2 96C763.3 95 790.7 81 818 77C845.3 73 872.7 79 886.3 82L900 85L900 65L886.3 61C872.7 57 845.3 49 818 54C790.7 59 763.3 77 736.2 79C709 81 682 67 654.8 65C627.7 63 600.3 73 573 71C545.7 69 518.3 55 491 47C463.7 39 436.3 37 409 45C381.7 53 354.3 71 327 84C299.7 97 272.3 105 245.2 98C218 91 191 69 163.8 69C136.7 69 109.3 91 82 95C54.7 99 27.3 85 13.7 78L0 71Z" fill="#2a1fae"></path><path d="M0 133L13.7 133C27.3 133 54.7 133 82 125C109.3 117 136.7 101 163.8 105C191 109 218 133 245.2 138C272.3 143 299.7 129 327 115C354.3 101 381.7 87 409 86C436.3 85 463.7 97 491 111C518.3 125 545.7 141 573 137C600.3 133 627.7 109 654.8 107C682 105 709 125 736.2 127C763.3 129 790.7 113 818 107C845.3 101 872.7 105 886.3 107L900 109L900 83L886.3 80C872.7 77 845.3 71 818 75C790.7 79 763.3 93 736.2 94C709 95 682 83 654.8 83C627.7 83 600.3 95 573 92C545.7 89 518.3 71 491 62C463.7 53 436.3 53 409 61C381.7 69 354.3 85 327 97C299.7 109 272.3 117 245.2 112C218 107 191 89 163.8 88C136.7 87 109.3 103 82 109C54.7 115 27.3 111 13.7 109L0 107Z" fill="#3a2cc9"></path><path d="M0 169L13.7 167C27.3 165 54.7 161 82 157C109.3 153 136.7 149 163.8 152C191 155 218 165 245.2 169C272.3 173 299.7 171 327 160C354.3 149 381.7 129 409 128C436.3 127 463.7 145 491 156C518.3 167 545.7 171 573 160C600.3 149 627.7 123 654.8 126C682 129 709 161 736.2 164C763.3 167 790.7 141 818 130C845.3 119 872.7 123 886.3 125L900 127L900 107L886.3 105C872.7 103 845.3 99 818 105C790.7 111 763.3 127 736.2 125C709 123 682 103 654.8 105C627.7 107 600.3 131 573 135C545.7 139 518.3 123 491 109C463.7 95 436.3 83 409 84C381.7 85 354.3 99 327 113C299.7 127 272.3 141 245.2 136C218 131 191 107 163.8 103C136.7 99 109.3 115 82 123C54.7 131 27.3 131 13.7 131L0 131Z" fill="#4a3ae6"></path><path d="M0 199L13.7 200C27.3 201 54.7 203 82 203C109.3 203 136.7 201 163.8 198C191 195 218 191 245.2 187C272.3 183 299.7 179 327 168C354.3 157 381.7 139 409 142C436.3 145 463.7 169 491 183C518.3 197 545.7 201 573 190C600.3 179 627.7 153 654.8 153C682 153 709 179 736.2 180C763.3 181 790.7 157 818 147C845.3 137 872.7 141 886.3 143L900 145L900 125L886.3 123C872.7 121 845.3 117 818 128C790.7 139 763.3 165 736.2 162C709 159 682 127 654.8 124C627.7 121 600.3 147 573 158C545.7 169 518.3 165 491 154C463.7 143 436.3 125 409 126C381.7 127 354.3 147 327 158C299.7 169 272.3 171 245.2 167C218 163 191 153 163.8 150C136.7 147 109.3 151 82 155C54.7 159 27.3 163 13.7 165L0 167Z" fill="#503ff2"></path><path d="M0 235L13.7 233C27.3 231 54.7 227 82 224C109.3 221 136.7 219 163.8 218C191 217 218 217 245.2 216C272.3 215 299.7 213 327 203C354.3 193 381.7 175 409 178C436.3 181 463.7 205 491 216C518.3 227 545.7 225 573 210C600.3 195 627.7 167 654.8 166C682 165 709 191 736.2 193C763.3 195 790.7 173 818 169C845.3 165 872.7 179 886.3 186L900 193L900 143L886.3 141C872.7 139 845.3 135 818 145C790.7 155 763.3 179 736.2 178C709 177 682 151 654.8 151C627.7 151 600.3 177 573 188C545.7 199 518.3 195 491 181C463.7 167 436.3 143 409 140C381.7 137 354.3 155 327 166C299.7 177 272.3 181 245.2 185C218 189 191 193 163.8 196C136.7 199 109.3 201 82 201C54.7 201 27.3 199 13.7 198L0 197Z" fill="#503ff2"></path><path d="M0 379L13.7 369C27.3 359 54.7 339 82 338C109.3 337 136.7 355 163.8 361C191 367 218 361 245.2 341C272.3 321 299.7 287 327 280C354.3 273 381.7 293 409 314C436.3 335 463.7 357 491 372C518.3 387 545.7 395 573 379C600.3 363 627.7 323 654.8 322C682 321 709 359 736.2 345C763.3 331 790.7 265 818 256C845.3 247 872.7 295 886.3 319L900 343L900 191L886.3 184C872.7 177 845.3 163 818 167C790.7 171 763.3 193 736.2 191C709 189 682 163 654.8 164C627.7 165 600.3 193 573 208C545.7 223 518.3 225 491 214C463.7 203 436.3 179 409 176C381.7 173 354.3 191 327 201C299.7 211 272.3 213 245.2 214C218 215 191 215 163.8 216C136.7 217 109.3 219 82 222C54.7 225 27.3 229 13.7 231L0 233Z" fill="#4a3ae6"></path><path d="M0 445L13.7 432C27.3 419 54.7 393 82 392C109.3 391 136.7 415 163.8 420C191 425 218 411 245.2 387C272.3 363 299.7 329 327 325C354.3 321 381.7 347 409 368C436.3 389 463.7 405 491 417C518.3 429 545.7 437 573 420C600.3 403 627.7 361 654.8 367C682 373 709 427 736.2 421C763.3 415 790.7 349 818 340C845.3 331 872.7 379 886.3 403L900 427L900 341L886.3 317C872.7 293 845.3 245 818 254C790.7 263 763.3 329 736.2 343C709 357 682 319 654.8 320C627.7 321 600.3 361 573 377C545.7 393 518.3 385 491 370C463.7 355 436.3 333 409 312C381.7 291 354.3 271 327 278C299.7 285 272.3 319 245.2 339C218 359 191 365 163.8 359C136.7 353 109.3 335 82 336C54.7 337 27.3 357 13.7 367L0 377Z" fill="#3a2cc9"></path><path d="M0 559L13.7 553C27.3 547 54.7 535 82 526C109.3 517 136.7 511 163.8 508C191 505 218 505 245.2 504C272.3 503 299.7 501 327 502C354.3 503 381.7 507 409 502C436.3 497 463.7 483 491 491C518.3 499 545.7 529 573 518C600.3 507 627.7 455 654.8 451C682 447 709 491 736.2 509C763.3 527 790.7 519 818 522C845.3 525 872.7 539 886.3 546L900 553L900 425L886.3 401C872.7 377 845.3 329 818 338C790.7 347 763.3 413 736.2 419C709 425 682 371 654.8 365C627.7 359 600.3 401 573 418C545.7 435 518.3 427 491 415C463.7 403 436.3 387 409 366C381.7 345 354.3 319 327 323C299.7 327 272.3 361 245.2 385C218 409 191 423 163.8 418C136.7 413 109.3 389 82 390C54.7 391 27.3 417 13.7 430L0 443Z" fill="#2a1fae"></path><path d="M0 577L13.7 574C27.3 571 54.7 565 82 565C109.3 565 136.7 571 163.8 575C191 579 218 581 245.2 583C272.3 585 299.7 587 327 588C354.3 589 381.7 589 409 585C436.3 581 463.7 573 491 572C518.3 571 545.7 577 573 576C600.3 575 627.7 567 654.8 569C682 571 709 583 736.2 583C763.3 583 790.7 571 818 569C845.3 567 872.7 575 886.3 579L900 583L900 551L886.3 544C872.7 537 845.3 523 818 520C790.7 517 763.3 525 736.2 507C709 489 682 445 654.8 449C627.7 453 600.3 505 573 516C545.7 527 518.3 497 491 489C463.7 481 436.3 495 409 500C381.7 505 354.3 501 327 500C299.7 499 272.3 501 245.2 502C218 503 191 503 163.8 506C136.7 509 109.3 515 82 524C54.7 533 27.3 545 13.7 551L0 557Z" fill="#181393"></path><path d="M0 601L13.7 601C27.3 601 54.7 601 82 601C109.3 601 136.7 601 163.8 601C191 601 218 601 245.2 601C272.3 601 299.7 601 327 601C354.3 601 381.7 601 409 601C436.3 601 463.7 601 491 601C518.3 601 545.7 601 573 601C600.3 601 627.7 601 654.8 601C682 601 709 601 736.2 601C763.3 601 790.7 601 818 601C845.3 601 872.7 601 886.3 601L900 601L900 581L886.3 577C872.7 573 845.3 565 818 567C790.7 569 763.3 581 736.2 581C709 581 682 569 654.8 567C627.7 565 600.3 573 573 574C545.7 575 518.3 569 491 570C463.7 571 436.3 579 409 583C381.7 587 354.3 587 327 586C299.7 585 272.3 583 245.2 581C218 579 191 577 163.8 573C136.7 569 109.3 563 82 563C54.7 563 27.3 569 13.7 572L0 575Z" fill="#000679"></path></svg>