<svg id="visual" viewBox="0 0 900 600" width="900" height="600" xmlns="http://www.w3.org/2000/svg" xmlns:xlink="http://www.w3.org/1999/xlink" version="1.1"><path d="M0 25L13.7 22C27.3 19 54.7 13 82 14C109.3 15 136.7 23 163.8 24C191 25 218 19 245.2 16C272.3 13 299.7 13 327 13C354.3 13 381.7 13 409 15C436.3 17 463.7 21 491 21C518.3 21 545.7 17 573 16C600.3 15 627.7 17 654.8 21C682 25 709 31 736.2 30C763.3 29 790.7 21 818 18C845.3 15 872.7 17 886.3 18L900 19L900 0L886.3 0C872.7 0 845.3 0 818 0C790.7 0 763.3 0 736.2 0C709 0 682 0 654.8 0C627.7 0 600.3 0 573 0C545.7 0 518.3 0 491 0C463.7 0 436.3 0 409 0C381.7 0 354.3 0 327 0C299.7 0 272.3 0 245.2 0C218 0 191 0 163.8 0C136.7 0 109.3 0 82 0C54.7 0 27.3 0 13.7 0L0 0Z" fill="#000679"></path><path d="M0 133L13.7 129C27.3 125 54.7 117 82 111C109.3 105 136.7 101 163.8 99C191 97 218 97 245.2 90C272.3 83 299.7 69 327 61C354.3 53 381.7 51 409 61C436.3 71 463.7 93 491 103C518.3 113 545.7 111 573 98C600.3 85 627.7 61 654.8 52C682 43 709 49 736.2 51C763.3 53 790.7 51 818 49C845.3 47 872.7 45 886.3 44L900 43L900 17L886.3 16C872.7 15 845.3 13 818 16C790.7 19 763.3 27 736.2 28C709 29 682 23 654.8 19C627.7 15 600.3 13 573 14C545.7 15 518.3 19 491 19C463.7 19 436.3 15 409 13C381.7 11 354.3 11 327 11C299.7 11 272.3 11 245.2 14C218 17 191 23 163.8 22C136.7 21 109.3 13 82 12C54.7 11 27.3 17 13.7 20L0 23Z" fill="#181393"></path><path d="M0 181L13.7 179C27.3 177 54.7 173 82 162C109.3 151 136.7 133 163.8 127C191 121 218 127 245.2 125C272.3 123 299.7 113 327 104C354.3 95 381.7 87 409 95C436.3 103 463.7 127 491 134C518.3 141 545.7 131 573 116C600.3 101 627.7 81 654.8 78C682 75 709 89 736.2 95C763.3 101 790.7 99 818 94C845.3 89 872.7 81 886.3 77L900 73L900 41L886.3 42C872.7 43 845.3 45 818 47C790.7 49 763.3 51 736.2 49C709 47 682 41 654.8 50C627.7 59 600.3 83 573 96C545.7 109 518.3 111 491 101C463.7 91 436.3 69 409 59C381.7 49 354.3 51 327 59C299.7 67 272.3 81 245.2 88C218 95 191 95 163.8 97C136.7 99 109.3 103 82 109C54.7 115 27.3 123 13.7 127L0 131Z" fill="#2a1fae"></path><path d="M0 187L13.7 193C27.3 199 54.7 211 82 207C109.3 203 136.7 183 163.8 175C191 167 218 171 245.2 170C272.3 169 299.7 163 327 151C354.3 139 381.7 121 409 122C436.3 123 463.7 143 491 147C518.3 151 545.7 139 573 124C600.3 109 627.7 91 654.8 92C682 93 709 113 736.2 126C763.3 139 790.7 145 818 141C845.3 137 872.7 123 886.3 116L900 109L900 71L886.3 75C872.7 79 845.3 87 818 92C790.7 97 763.3 99 736.2 93C709 87 682 73 654.8 76C627.7 79 600.3 99 573 114C545.7 129 518.3 139 491 132C463.7 125 436.3 101 409 93C381.7 85 354.3 93 327 102C299.7 111 272.3 121 245.2 123C218 125 191 119 163.8 125C136.7 131 109.3 149 82 160C54.7 171 27.3 175 13.7 177L0 179Z" fill="#3a2cc9"></path><path d="M0 241L13.7 250C27.3 259 54.7 277 82 272C109.3 267 136.7 239 163.8 221C191 203 218 195 245.2 195C272.3 195 299.7 203 327 193C354.3 183 381.7 155 409 150C436.3 145 463.7 163 491 178C518.3 193 545.7 205 573 204C600.3 203 627.7 189 654.8 184C682 179 709 183 736.2 187C763.3 191 790.7 195 818 187C845.3 179 872.7 159 886.3 149L900 139L900 107L886.3 114C872.7 121 845.3 135 818 139C790.7 143 763.3 137 736.2 124C709 111 682 91 654.8 90C627.7 89 600.3 107 573 122C545.7 137 518.3 149 491 145C463.7 141 436.3 121 409 120C381.7 119 354.3 137 327 149C299.7 161 272.3 167 245.2 168C218 169 191 165 163.8 173C136.7 181 109.3 201 82 205C54.7 209 27.3 197 13.7 191L0 185Z" fill="#4a3ae6"></path><path d="M0 283L13.7 291C27.3 299 54.7 315 82 312C109.3 309 136.7 287 163.8 268C191 249 218 233 245.2 233C272.3 233 299.7 249 327 243C354.3 237 381.7 209 409 201C436.3 193 463.7 205 491 223C518.3 241 545.7 265 573 264C600.3 263 627.7 237 654.8 225C682 213 709 215 736.2 221C763.3 227 790.7 237 818 235C845.3 233 872.7 219 886.3 212L900 205L900 137L886.3 147C872.7 157 845.3 177 818 185C790.7 193 763.3 189 736.2 185C709 181 682 177 654.8 182C627.7 187 600.3 201 573 202C545.7 203 518.3 191 491 176C463.7 161 436.3 143 409 148C381.7 153 354.3 181 327 191C299.7 201 272.3 193 245.2 193C218 193 191 201 163.8 219C136.7 237 109.3 265 82 270C54.7 275 27.3 257 13.7 248L0 239Z" fill="#503ff2"></path><path d="M0 319L13.7 324C27.3 329 54.7 339 82 336C109.3 333 136.7 317 163.8 301C191 285 218 269 245.2 264C272.3 259 299.7 265 327 259C354.3 253 381.7 235 409 229C436.3 223 463.7 229 491 244C518.3 259 545.7 283 573 284C600.3 285 627.7 263 654.8 254C682 245 709 249 736.2 258C763.3 267 790.7 281 818 278C845.3 275 872.7 255 886.3 245L900 235L900 203L886.3 210C872.7 217 845.3 231 818 233C790.7 235 763.3 225 736.2 219C709 213 682 211 654.8 223C627.7 235 600.3 261 573 262C545.7 263 518.3 239 491 221C463.7 203 436.3 191 409 199C381.7 207 354.3 235 327 241C299.7 247 272.3 231 245.2 231C218 231 191 247 163.8 266C136.7 285 109.3 307 82 310C54.7 313 27.3 297 13.7 289L0 281Z" fill="#503ff2"></path><path d="M0 457L13.7 458C27.3 459 54.7 461 82 440C109.3 419 136.7 375 163.8 371C191 367 218 403 245.2 424C272.3 445 299.7 451 327 443C354.3 435 381.7 413 409 399C436.3 385 463.7 379 491 388C518.3 397 545.7 421 573 428C600.3 435 627.7 425 654.8 423C682 421 709 427 736.2 440C763.3 453 790.7 473 818 452C845.3 431 872.7 369 886.3 338L900 307L900 233L886.3 243C872.7 253 845.3 273 818 276C790.7 279 763.3 265 736.2 256C709 247 682 243 654.8 252C627.7 261 600.3 283 573 282C545.7 281 518.3 257 491 242C463.7 227 436.3 221 409 227C381.7 233 354.3 251 327 257C299.7 263 272.3 257 245.2 262C218 267 191 283 163.8 299C136.7 315 109.3 331 82 334C54.7 337 27.3 327 13.7 322L0 317Z" fill="#4a3ae6"></path><path d="M0 469L13.7 470C27.3 471 54.7 473 82 454C109.3 435 136.7 395 163.8 396C191 397 218 439 245.2 459C272.3 479 299.7 477 327 467C354.3 457 381.7 439 409 426C436.3 413 463.7 405 491 411C518.3 417 545.7 437 573 443C600.3 449 627.7 441 654.8 440C682 439 709 445 736.2 456C763.3 467 790.7 483 818 466C845.3 449 872.7 399 886.3 374L900 349L900 305L886.3 336C872.7 367 845.3 429 818 450C790.7 471 763.3 451 736.2 438C709 425 682 419 654.8 421C627.7 423 600.3 433 573 426C545.7 419 518.3 395 491 386C463.7 377 436.3 383 409 397C381.7 411 354.3 433 327 441C299.7 449 272.3 443 245.2 422C218 401 191 365 163.8 369C136.7 373 109.3 417 82 438C54.7 459 27.3 457 13.7 456L0 455Z" fill="#3a2cc9"></path><path d="M0 535L13.7 529C27.3 523 54.7 511 82 485C109.3 459 136.7 419 163.8 418C191 417 218 455 245.2 473C272.3 491 299.7 489 327 487C354.3 485 381.7 483 409 480C436.3 477 463.7 473 491 478C518.3 483 545.7 497 573 493C600.3 489 627.7 467 654.8 458C682 449 709 453 736.2 464C763.3 475 790.7 493 818 479C845.3 465 872.7 419 886.3 396L900 373L900 347L886.3 372C872.7 397 845.3 447 818 464C790.7 481 763.3 465 736.2 454C709 443 682 437 654.8 438C627.7 439 600.3 447 573 441C545.7 435 518.3 415 491 409C463.7 403 436.3 411 409 424C381.7 437 354.3 455 327 465C299.7 475 272.3 477 245.2 457C218 437 191 395 163.8 394C136.7 393 109.3 433 82 452C54.7 471 27.3 469 13.7 468L0 467Z" fill="#2a1fae"></path><path d="M0 547L13.7 543C27.3 539 54.7 531 82 507C109.3 483 136.7 443 163.8 446C191 449 218 495 245.2 511C272.3 527 299.7 513 327 511C354.3 509 381.7 519 409 516C436.3 513 463.7 497 491 498C518.3 499 545.7 517 573 518C600.3 519 627.7 503 654.8 497C682 491 709 495 736.2 502C763.3 509 790.7 519 818 501C845.3 483 872.7 437 886.3 414L900 391L900 371L886.3 394C872.7 417 845.3 463 818 477C790.7 491 763.3 473 736.2 462C709 451 682 447 654.8 456C627.7 465 600.3 487 573 491C545.7 495 518.3 481 491 476C463.7 471 436.3 475 409 478C381.7 481 354.3 483 327 485C299.7 487 272.3 489 245.2 471C218 453 191 415 163.8 416C136.7 417 109.3 457 82 483C54.7 509 27.3 521 13.7 527L0 533Z" fill="#181393"></path><path d="M0 601L13.7 601C27.3 601 54.7 601 82 601C109.3 601 136.7 601 163.8 601C191 601 218 601 245.2 601C272.3 601 299.7 601 327 601C354.3 601 381.7 601 409 601C436.3 601 463.7 601 491 601C518.3 601 545.7 601 573 601C600.3 601 627.7 601 654.8 601C682 601 709 601 736.2 601C763.3 601 790.7 601 818 601C845.3 601 872.7 601 886.3 601L900 601L900 389L886.3 412C872.7 435 845.3 481 818 499C790.7 517 763.3 507 736.2 500C709 493 682 489 654.8 495C627.7 501 600.3 517 573 516C545.7 515 518.3 497 491 496C463.7 495 436.3 511 409 514C381.7 517 354.3 507 327 509C299.7 511 272.3 525 245.2 509C218 493 191 447 163.8 444C136.7 441 109.3 481 82 505C54.7 529 27.3 537 13.7 541L0 545Z" fill="#000679"></path></svg>