<svg id="visual" viewBox="0 0 900 600" width="900" height="600" xmlns="http://www.w3.org/2000/svg" xmlns:xlink="http://www.w3.org/1999/xlink" version="1.1"><path d="M0 49L13.7 48C27.3 47 54.7 45 82 42C109.3 39 136.7 35 163.8 32C191 29 218 27 245.2 24C272.3 21 299.7 17 327 21C354.3 25 381.7 37 409 39C436.3 41 463.7 33 491 29C518.3 25 545.7 25 573 23C600.3 21 627.7 17 654.8 19C682 21 709 29 736.2 31C763.3 33 790.7 29 818 32C845.3 35 872.7 45 886.3 50L900 55L900 0L886.3 0C872.7 0 845.3 0 818 0C790.7 0 763.3 0 736.2 0C709 0 682 0 654.8 0C627.7 0 600.3 0 573 0C545.7 0 518.3 0 491 0C463.7 0 436.3 0 409 0C381.7 0 354.3 0 327 0C299.7 0 272.3 0 245.2 0C218 0 191 0 163.8 0C136.7 0 109.3 0 82 0C54.7 0 27.3 0 13.7 0L0 0Z" fill="#000679"></path><path d="M0 97L13.7 90C27.3 83 54.7 69 82 75C109.3 81 136.7 107 163.8 107C191 107 218 81 245.2 76C272.3 71 299.7 87 327 97C354.3 107 381.7 111 409 102C436.3 93 463.7 71 491 59C518.3 47 545.7 45 573 45C600.3 45 627.7 47 654.8 62C682 77 709 105 736.2 112C763.3 119 790.7 105 818 103C845.3 101 872.7 111 886.3 116L900 121L900 53L886.3 48C872.7 43 845.3 33 818 30C790.7 27 763.3 31 736.2 29C709 27 682 19 654.8 17C627.7 15 600.3 19 573 21C545.7 23 518.3 23 491 27C463.7 31 436.3 39 409 37C381.7 35 354.3 23 327 19C299.7 15 272.3 19 245.2 22C218 25 191 27 163.8 30C136.7 33 109.3 37 82 40C54.7 43 27.3 45 13.7 46L0 47Z" fill="#181393"></path><path d="M0 163L13.7 150C27.3 137 54.7 111 82 110C109.3 109 136.7 133 163.8 138C191 143 218 129 245.2 128C272.3 127 299.7 139 327 145C354.3 151 381.7 151 409 138C436.3 125 463.7 99 491 89C518.3 79 545.7 85 573 92C600.3 99 627.7 107 654.8 120C682 133 709 151 736.2 154C763.3 157 790.7 145 818 145C845.3 145 872.7 157 886.3 163L900 169L900 119L886.3 114C872.7 109 845.3 99 818 101C790.7 103 763.3 117 736.2 110C709 103 682 75 654.8 60C627.7 45 600.3 43 573 43C545.7 43 518.3 45 491 57C463.7 69 436.3 91 409 100C381.7 109 354.3 105 327 95C299.7 85 272.3 69 245.2 74C218 79 191 105 163.8 105C136.7 105 109.3 79 82 73C54.7 67 27.3 81 13.7 88L0 95Z" fill="#2a1fae"></path><path d="M0 199L13.7 184C27.3 169 54.7 139 82 140C109.3 141 136.7 173 163.8 181C191 189 218 173 245.2 172C272.3 171 299.7 185 327 190C354.3 195 381.7 191 409 172C436.3 153 463.7 119 491 108C518.3 97 545.7 109 573 119C600.3 129 627.7 137 654.8 150C682 163 709 181 736.2 184C763.3 187 790.7 175 818 176C845.3 177 872.7 191 886.3 198L900 205L900 167L886.3 161C872.7 155 845.3 143 818 143C790.7 143 763.3 155 736.2 152C709 149 682 131 654.8 118C627.7 105 600.3 97 573 90C545.7 83 518.3 77 491 87C463.7 97 436.3 123 409 136C381.7 149 354.3 149 327 143C299.7 137 272.3 125 245.2 126C218 127 191 141 163.8 136C136.7 131 109.3 107 82 108C54.7 109 27.3 135 13.7 148L0 161Z" fill="#3a2cc9"></path><path d="M0 253L13.7 252C27.3 251 54.7 249 82 250C109.3 251 136.7 255 163.8 258C191 261 218 263 245.2 270C272.3 277 299.7 289 327 285C354.3 281 381.7 261 409 245C436.3 229 463.7 217 491 230C518.3 243 545.7 281 573 280C600.3 279 627.7 239 654.8 253C682 267 709 335 736.2 342C763.3 349 790.7 295 818 272C845.3 249 872.7 257 886.3 261L900 265L900 203L886.3 196C872.7 189 845.3 175 818 174C790.7 173 763.3 185 736.2 182C709 179 682 161 654.8 148C627.7 135 600.3 127 573 117C545.7 107 518.3 95 491 106C463.7 117 436.3 151 409 170C381.7 189 354.3 193 327 188C299.7 183 272.3 169 245.2 170C218 171 191 187 163.8 179C136.7 171 109.3 139 82 138C54.7 137 27.3 167 13.7 182L0 197Z" fill="#4a3ae6"></path><path d="M0 403L13.7 393C27.3 383 54.7 363 82 371C109.3 379 136.7 415 163.8 418C191 421 218 391 245.2 386C272.3 381 299.7 401 327 398C354.3 395 381.7 369 409 351C436.3 333 463.7 323 491 336C518.3 349 545.7 385 573 397C600.3 409 627.7 397 654.8 407C682 417 709 449 736.2 447C763.3 445 790.7 409 818 407C845.3 405 872.7 437 886.3 453L900 469L900 263L886.3 259C872.7 255 845.3 247 818 270C790.7 293 763.3 347 736.2 340C709 333 682 265 654.8 251C627.7 237 600.3 277 573 278C545.7 279 518.3 241 491 228C463.7 215 436.3 227 409 243C381.7 259 354.3 279 327 283C299.7 287 272.3 275 245.2 268C218 261 191 259 163.8 256C136.7 253 109.3 249 82 248C54.7 247 27.3 249 13.7 250L0 251Z" fill="#503ff2"></path><path d="M0 439L13.7 426C27.3 413 54.7 387 82 394C109.3 401 136.7 441 163.8 448C191 455 218 429 245.2 420C272.3 411 299.7 419 327 414C354.3 409 381.7 391 409 376C436.3 361 463.7 349 491 364C518.3 379 545.7 421 573 430C600.3 439 627.7 415 654.8 424C682 433 709 475 736.2 475C763.3 475 790.7 433 818 429C845.3 425 872.7 459 886.3 476L900 493L900 467L886.3 451C872.7 435 845.3 403 818 405C790.7 407 763.3 443 736.2 445C709 447 682 415 654.8 405C627.7 395 600.3 407 573 395C545.7 383 518.3 347 491 334C463.7 321 436.3 331 409 349C381.7 367 354.3 393 327 396C299.7 399 272.3 379 245.2 384C218 389 191 419 163.8 416C136.7 413 109.3 377 82 369C54.7 361 27.3 381 13.7 391L0 401Z" fill="#503ff2"></path><path d="M0 493L13.7 482C27.3 471 54.7 449 82 450C109.3 451 136.7 475 163.8 476C191 477 218 455 245.2 450C272.3 445 299.7 457 327 452C354.3 447 381.7 425 409 412C436.3 399 463.7 395 491 409C518.3 423 545.7 455 573 465C600.3 475 627.7 463 654.8 470C682 477 709 503 736.2 504C763.3 505 790.7 481 818 482C845.3 483 872.7 509 886.3 522L900 535L900 491L886.3 474C872.7 457 845.3 423 818 427C790.7 431 763.3 473 736.2 473C709 473 682 431 654.8 422C627.7 413 600.3 437 573 428C545.7 419 518.3 377 491 362C463.7 347 436.3 359 409 374C381.7 389 354.3 407 327 412C299.7 417 272.3 409 245.2 418C218 427 191 453 163.8 446C136.7 439 109.3 399 82 392C54.7 385 27.3 411 13.7 424L0 437Z" fill="#4a3ae6"></path><path d="M0 511L13.7 500C27.3 489 54.7 467 82 469C109.3 471 136.7 497 163.8 497C191 497 218 471 245.2 468C272.3 465 299.7 485 327 484C354.3 483 381.7 461 409 445C436.3 429 463.7 419 491 431C518.3 443 545.7 477 573 485C600.3 493 627.7 475 654.8 479C682 483 709 509 736.2 515C763.3 521 790.7 507 818 508C845.3 509 872.7 525 886.3 533L900 541L900 533L886.3 520C872.7 507 845.3 481 818 480C790.7 479 763.3 503 736.2 502C709 501 682 475 654.8 468C627.7 461 600.3 473 573 463C545.7 453 518.3 421 491 407C463.7 393 436.3 397 409 410C381.7 423 354.3 445 327 450C299.7 455 272.3 443 245.2 448C218 453 191 475 163.8 474C136.7 473 109.3 449 82 448C54.7 447 27.3 469 13.7 480L0 491Z" fill="#3a2cc9"></path><path d="M0 553L13.7 543C27.3 533 54.7 513 82 510C109.3 507 136.7 521 163.8 515C191 509 218 483 245.2 481C272.3 479 299.7 501 327 504C354.3 507 381.7 491 409 477C436.3 463 463.7 451 491 460C518.3 469 545.7 499 573 505C600.3 511 627.7 493 654.8 495C682 497 709 519 736.2 526C763.3 533 790.7 525 818 528C845.3 531 872.7 545 886.3 552L900 559L900 539L886.3 531C872.7 523 845.3 507 818 506C790.7 505 763.3 519 736.2 513C709 507 682 481 654.8 477C627.7 473 600.3 491 573 483C545.7 475 518.3 441 491 429C463.7 417 436.3 427 409 443C381.7 459 354.3 481 327 482C299.7 483 272.3 463 245.2 466C218 469 191 495 163.8 495C136.7 495 109.3 469 82 467C54.7 465 27.3 487 13.7 498L0 509Z" fill="#2a1fae"></path><path d="M0 577L13.7 580C27.3 583 54.7 589 82 592C109.3 595 136.7 595 163.8 594C191 593 218 591 245.2 590C272.3 589 299.7 589 327 585C354.3 581 381.7 573 409 570C436.3 567 463.7 569 491 570C518.3 571 545.7 571 573 569C600.3 567 627.7 563 654.8 565C682 567 709 575 736.2 581C763.3 587 790.7 591 818 592C845.3 593 872.7 591 886.3 590L900 589L900 557L886.3 550C872.7 543 845.3 529 818 526C790.7 523 763.3 531 736.2 524C709 517 682 495 654.8 493C627.7 491 600.3 509 573 503C545.7 497 518.3 467 491 458C463.7 449 436.3 461 409 475C381.7 489 354.3 505 327 502C299.7 499 272.3 477 245.2 479C218 481 191 507 163.8 513C136.7 519 109.3 505 82 508C54.7 511 27.3 531 13.7 541L0 551Z" fill="#181393"></path><path d="M0 601L13.7 601C27.3 601 54.7 601 82 601C109.3 601 136.7 601 163.8 601C191 601 218 601 245.2 601C272.3 601 299.7 601 327 601C354.3 601 381.7 601 409 601C436.3 601 463.7 601 491 601C518.3 601 545.7 601 573 601C600.3 601 627.7 601 654.8 601C682 601 709 601 736.2 601C763.3 601 790.7 601 818 601C845.3 601 872.7 601 886.3 601L900 601L900 587L886.3 588C872.7 589 845.3 591 818 590C790.7 589 763.3 585 736.2 579C709 573 682 565 654.8 563C627.7 561 600.3 565 573 567C545.7 569 518.3 569 491 568C463.7 567 436.3 565 409 568C381.7 571 354.3 579 327 583C299.7 587 272.3 587 245.2 588C218 589 191 591 163.8 592C136.7 593 109.3 593 82 590C54.7 587 27.3 581 13.7 578L0 575Z" fill="#000679"></path></svg>