<svg id="visual" viewBox="0 0 900 600" width="900" height="600" xmlns="http://www.w3.org/2000/svg" xmlns:xlink="http://www.w3.org/1999/xlink" version="1.1"><path d="M0 103L13.7 92C27.3 81 54.7 59 82 46C109.3 33 136.7 29 163.8 37C191 45 218 65 245.2 74C272.3 83 299.7 81 327 82C354.3 83 381.7 87 409 79C436.3 71 463.7 51 491 41C518.3 31 545.7 31 573 35C600.3 39 627.7 47 654.8 52C682 57 709 59 736.2 53C763.3 47 790.7 33 818 27C845.3 21 872.7 23 886.3 24L900 25L900 0L886.3 0C872.7 0 845.3 0 818 0C790.7 0 763.3 0 736.2 0C709 0 682 0 654.8 0C627.7 0 600.3 0 573 0C545.7 0 518.3 0 491 0C463.7 0 436.3 0 409 0C381.7 0 354.3 0 327 0C299.7 0 272.3 0 245.2 0C218 0 191 0 163.8 0C136.7 0 109.3 0 82 0C54.7 0 27.3 0 13.7 0L0 0Z" fill="#000679"></path><path d="M0 139L13.7 125C27.3 111 54.7 83 82 70C109.3 57 136.7 59 163.8 70C191 81 218 101 245.2 105C272.3 109 299.7 97 327 94C354.3 91 381.7 97 409 91C436.3 85 463.7 67 491 59C518.3 51 545.7 53 573 56C600.3 59 627.7 63 654.8 68C682 73 709 79 736.2 74C763.3 69 790.7 53 818 48C845.3 43 872.7 49 886.3 52L900 55L900 23L886.3 22C872.7 21 845.3 19 818 25C790.7 31 763.3 45 736.2 51C709 57 682 55 654.8 50C627.7 45 600.3 37 573 33C545.7 29 518.3 29 491 39C463.7 49 436.3 69 409 77C381.7 85 354.3 81 327 80C299.7 79 272.3 81 245.2 72C218 63 191 43 163.8 35C136.7 27 109.3 31 82 44C54.7 57 27.3 79 13.7 90L0 101Z" fill="#181393"></path><path d="M0 145L13.7 133C27.3 121 54.7 97 82 89C109.3 81 136.7 89 163.8 104C191 119 218 141 245.2 143C272.3 145 299.7 127 327 122C354.3 117 381.7 125 409 119C436.3 113 463.7 93 491 83C518.3 73 545.7 73 573 77C600.3 81 627.7 89 654.8 97C682 105 709 113 736.2 108C763.3 103 790.7 85 818 78C845.3 71 872.7 75 886.3 77L900 79L900 53L886.3 50C872.7 47 845.3 41 818 46C790.7 51 763.3 67 736.2 72C709 77 682 71 654.8 66C627.7 61 600.3 57 573 54C545.7 51 518.3 49 491 57C463.7 65 436.3 83 409 89C381.7 95 354.3 89 327 92C299.7 95 272.3 107 245.2 103C218 99 191 79 163.8 68C136.7 57 109.3 55 82 68C54.7 81 27.3 109 13.7 123L0 137Z" fill="#2a1fae"></path><path d="M0 181L13.7 168C27.3 155 54.7 129 82 117C109.3 105 136.7 107 163.8 123C191 139 218 169 245.2 173C272.3 177 299.7 155 327 148C354.3 141 381.7 149 409 141C436.3 133 463.7 109 491 100C518.3 91 545.7 97 573 107C600.3 117 627.7 131 654.8 139C682 147 709 149 736.2 139C763.3 129 790.7 107 818 101C845.3 95 872.7 105 886.3 110L900 115L900 77L886.3 75C872.7 73 845.3 69 818 76C790.7 83 763.3 101 736.2 106C709 111 682 103 654.8 95C627.7 87 600.3 79 573 75C545.7 71 518.3 71 491 81C463.7 91 436.3 111 409 117C381.7 123 354.3 115 327 120C299.7 125 272.3 143 245.2 141C218 139 191 117 163.8 102C136.7 87 109.3 79 82 87C54.7 95 27.3 119 13.7 131L0 143Z" fill="#3a2cc9"></path><path d="M0 229L13.7 212C27.3 195 54.7 161 82 150C109.3 139 136.7 151 163.8 170C191 189 218 215 245.2 211C272.3 207 299.7 173 327 166C354.3 159 381.7 179 409 173C436.3 167 463.7 135 491 127C518.3 119 545.7 135 573 143C600.3 151 627.7 151 654.8 159C682 167 709 183 736.2 177C763.3 171 790.7 143 818 130C845.3 117 872.7 119 886.3 120L900 121L900 113L886.3 108C872.7 103 845.3 93 818 99C790.7 105 763.3 127 736.2 137C709 147 682 145 654.8 137C627.7 129 600.3 115 573 105C545.7 95 518.3 89 491 98C463.7 107 436.3 131 409 139C381.7 147 354.3 139 327 146C299.7 153 272.3 175 245.2 171C218 167 191 137 163.8 121C136.7 105 109.3 103 82 115C54.7 127 27.3 153 13.7 166L0 179Z" fill="#4a3ae6"></path><path d="M0 271L13.7 261C27.3 251 54.7 231 82 218C109.3 205 136.7 199 163.8 206C191 213 218 233 245.2 235C272.3 237 299.7 221 327 225C354.3 229 381.7 253 409 252C436.3 251 463.7 225 491 209C518.3 193 545.7 187 573 188C600.3 189 627.7 197 654.8 209C682 221 709 237 736.2 227C763.3 217 790.7 181 818 171C845.3 161 872.7 177 886.3 185L900 193L900 119L886.3 118C872.7 117 845.3 115 818 128C790.7 141 763.3 169 736.2 175C709 181 682 165 654.8 157C627.7 149 600.3 149 573 141C545.7 133 518.3 117 491 125C463.7 133 436.3 165 409 171C381.7 177 354.3 157 327 164C299.7 171 272.3 205 245.2 209C218 213 191 187 163.8 168C136.7 149 109.3 137 82 148C54.7 159 27.3 193 13.7 210L0 227Z" fill="#503ff2"></path><path d="M0 451L13.7 437C27.3 423 54.7 395 82 379C109.3 363 136.7 359 163.8 357C191 355 218 355 245.2 340C272.3 325 299.7 295 327 301C354.3 307 381.7 349 409 354C436.3 359 463.7 327 491 314C518.3 301 545.7 307 573 321C600.3 335 627.7 357 654.8 372C682 387 709 395 736.2 394C763.3 393 790.7 383 818 373C845.3 363 872.7 353 886.3 348L900 343L900 191L886.3 183C872.7 175 845.3 159 818 169C790.7 179 763.3 215 736.2 225C709 235 682 219 654.8 207C627.7 195 600.3 187 573 186C545.7 185 518.3 191 491 207C463.7 223 436.3 249 409 250C381.7 251 354.3 227 327 223C299.7 219 272.3 235 245.2 233C218 231 191 211 163.8 204C136.7 197 109.3 203 82 216C54.7 229 27.3 249 13.7 259L0 269Z" fill="#503ff2"></path><path d="M0 481L13.7 478C27.3 475 54.7 469 82 469C109.3 469 136.7 475 163.8 473C191 471 218 461 245.2 457C272.3 453 299.7 455 327 459C354.3 463 381.7 469 409 472C436.3 475 463.7 475 491 470C518.3 465 545.7 455 573 454C600.3 453 627.7 461 654.8 463C682 465 709 461 736.2 455C763.3 449 790.7 441 818 439C845.3 437 872.7 441 886.3 443L900 445L900 341L886.3 346C872.7 351 845.3 361 818 371C790.7 381 763.3 391 736.2 392C709 393 682 385 654.8 370C627.7 355 600.3 333 573 319C545.7 305 518.3 299 491 312C463.7 325 436.3 357 409 352C381.7 347 354.3 305 327 299C299.7 293 272.3 323 245.2 338C218 353 191 353 163.8 355C136.7 357 109.3 361 82 377C54.7 393 27.3 421 13.7 435L0 449Z" fill="#4a3ae6"></path><path d="M0 499L13.7 499C27.3 499 54.7 499 82 498C109.3 497 136.7 495 163.8 493C191 491 218 489 245.2 487C272.3 485 299.7 483 327 484C354.3 485 381.7 489 409 494C436.3 499 463.7 505 491 498C518.3 491 545.7 471 573 465C600.3 459 627.7 467 654.8 472C682 477 709 479 736.2 478C763.3 477 790.7 473 818 472C845.3 471 872.7 473 886.3 474L900 475L900 443L886.3 441C872.7 439 845.3 435 818 437C790.7 439 763.3 447 736.2 453C709 459 682 463 654.8 461C627.7 459 600.3 451 573 452C545.7 453 518.3 463 491 468C463.7 473 436.3 473 409 470C381.7 467 354.3 461 327 457C299.7 453 272.3 451 245.2 455C218 459 191 469 163.8 471C136.7 473 109.3 467 82 467C54.7 467 27.3 473 13.7 476L0 479Z" fill="#3a2cc9"></path><path d="M0 547L13.7 543C27.3 539 54.7 531 82 531C109.3 531 136.7 539 163.8 541C191 543 218 539 245.2 538C272.3 537 299.7 539 327 536C354.3 533 381.7 525 409 524C436.3 523 463.7 529 491 527C518.3 525 545.7 515 573 511C600.3 507 627.7 509 654.8 512C682 515 709 519 736.2 516C763.3 513 790.7 503 818 502C845.3 501 872.7 509 886.3 513L900 517L900 473L886.3 472C872.7 471 845.3 469 818 470C790.7 471 763.3 475 736.2 476C709 477 682 475 654.8 470C627.7 465 600.3 457 573 463C545.7 469 518.3 489 491 496C463.7 503 436.3 497 409 492C381.7 487 354.3 483 327 482C299.7 481 272.3 483 245.2 485C218 487 191 489 163.8 491C136.7 493 109.3 495 82 496C54.7 497 27.3 497 13.7 497L0 497Z" fill="#2a1fae"></path><path d="M0 559L13.7 554C27.3 549 54.7 539 82 543C109.3 547 136.7 565 163.8 567C191 569 218 555 245.2 552C272.3 549 299.7 557 327 559C354.3 561 381.7 557 409 555C436.3 553 463.7 553 491 553C518.3 553 545.7 553 573 555C600.3 557 627.7 561 654.8 559C682 557 709 549 736.2 547C763.3 545 790.7 549 818 555C845.3 561 872.7 569 886.3 573L900 577L900 515L886.3 511C872.7 507 845.3 499 818 500C790.7 501 763.3 511 736.2 514C709 517 682 513 654.8 510C627.7 507 600.3 505 573 509C545.7 513 518.3 523 491 525C463.7 527 436.3 521 409 522C381.7 523 354.3 531 327 534C299.7 537 272.3 535 245.2 536C218 537 191 541 163.8 539C136.7 537 109.3 529 82 529C54.7 529 27.3 537 13.7 541L0 545Z" fill="#181393"></path><path d="M0 601L13.7 601C27.3 601 54.7 601 82 601C109.3 601 136.7 601 163.8 601C191 601 218 601 245.2 601C272.3 601 299.7 601 327 601C354.3 601 381.7 601 409 601C436.3 601 463.7 601 491 601C518.3 601 545.7 601 573 601C600.3 601 627.7 601 654.8 601C682 601 709 601 736.2 601C763.3 601 790.7 601 818 601C845.3 601 872.7 601 886.3 601L900 601L900 575L886.3 571C872.7 567 845.3 559 818 553C790.7 547 763.3 543 736.2 545C709 547 682 555 654.8 557C627.7 559 600.3 555 573 553C545.7 551 518.3 551 491 551C463.7 551 436.3 551 409 553C381.7 555 354.3 559 327 557C299.7 555 272.3 547 245.2 550C218 553 191 567 163.8 565C136.7 563 109.3 545 82 541C54.7 537 27.3 547 13.7 552L0 557Z" fill="#000679"></path></svg>