<?xml version="1.0" encoding="utf-8"?>
<svg id="visual" viewBox="0 0 960 140" width="960" height="140" version="1.1" xmlns="http://www.w3.org/2000/svg">
  <rect x="0" width="960" height="140" fill="#eeeeee" y="0"/>
  <path d="M0 29L22.8 42.5C45.7 56 91.3 83 137 89.8C182.7 96.7 228.3 83.3 274 71.3C319.7 59.3 365.3 48.7 411.2 42.8C457 37 503 36 548.8 35.8C594.7 35.7 640.3 36.3 686 48.3C731.7 60.3 777.3 83.7 823 91.3C868.7 99 914.3 91 937.2 87L960 83L960 0L937.2 0C914.3 0 868.7 0 823 0C777.3 0 731.7 0 686 0C640.3 0 594.7 0 548.8 0C503 0 457 0 411.2 0C365.3 0 319.7 0 274 0C228.3 0 182.7 0 137 0C91.3 0 45.7 0 22.8 0L0 0Z" stroke-linecap="round" stroke-linejoin="miter" style="fill: rgba(255, 0, 0, 0);"/>
</svg>